<svg xmlns="http://www.w3.org/2000/svg" viewBox="0 0 28.606 28.641"><defs><style>.a{fill:#faa42d;}</style></defs><g transform="translate(-3855.008 -404.039)"><path class="a" d="M30.332,7c-5.5,0-9.78,4.491-9.78,9.244,0,6.362,5.386,6.377,5.386,10.487v5.41a2.133,2.133,0,0,0,2.139,2.227h.116a2.008,2.008,0,0,0,2.139,1.274,2.008,2.008,0,0,0,2.139-1.273h.021a2.133,2.133,0,0,0,2.139-2.227V26.73c0-4.11,5.48-4.125,5.48-10.487C40.112,11.491,35.834,7,30.332,7Zm2.16,26.369h-.737l-.23.678c-.056.163-.2.6-1.194.6s-1.138-.433-1.193-.6l-.23-.678h-.832a1.135,1.135,0,0,1-1.14-1.228V29.155h6.7v2.986A1.136,1.136,0,0,1,32.492,33.369Zm3.751-11.347c-1.284,1.2-2.611,2.443-2.611,4.708v1.425h-6.7V26.73c0-2.259-1.3-3.5-2.565-4.7-1.45-1.381-2.821-2.686-2.821-5.785a8.082,8.082,0,0,1,2.526-5.69,8.933,8.933,0,0,1,12.51,0,8.082,8.082,0,0,1,2.526,5.69C39.113,19.337,37.719,20.642,36.244,22.022Z" transform="translate(3838.952 397.039)"/><path class="a" d="M43.611,23.311a2.082,2.082,0,0,1-.872-1.034,2.08,2.08,0,0,1,.287-1.322.6.6,0,0,0,0-.567l-.7-.945a.6.6,0,0,0-.432-.184.46.46,0,0,0-.109.013,2.638,2.638,0,0,1-.577.065,1.509,1.509,0,0,1-.77-.18,2.079,2.079,0,0,1-.732-1.138.592.592,0,0,0-.4-.4l-1.163-.176h-.028a.6.6,0,0,0-.476.263,2.082,2.082,0,0,1-1.034.872,1.124,1.124,0,0,1-.269.031,2.367,2.367,0,0,1-1.053-.318.594.594,0,0,0-.567,0l-.945.7a.592.592,0,0,0-.172.54,2.079,2.079,0,0,1-.115,1.347,2.084,2.084,0,0,1-1.137.732.593.593,0,0,0-.4.4l-.176,1.162a.6.6,0,0,0,.262.5,2.076,2.076,0,0,1,.87,1.034,2.079,2.079,0,0,1-.286,1.321.6.6,0,0,0,0,.567l.7.945a.6.6,0,0,0,.433.184.455.455,0,0,0,.108-.012,2.651,2.651,0,0,1,.577-.064,1.515,1.515,0,0,1,.77.179,2.083,2.083,0,0,1,.731,1.138.594.594,0,0,0,.4.4l1.162.175h.028a.6.6,0,0,0,.476-.263,2.082,2.082,0,0,1,1.034-.87,1.114,1.114,0,0,1,.269-.031,2.363,2.363,0,0,1,1.052.318.6.6,0,0,0,.567,0l.945-.7a.594.594,0,0,0,.172-.541,2.087,2.087,0,0,1,.115-1.348,2.081,2.081,0,0,1,1.138-.732.593.593,0,0,0,.4-.4l.176-1.162A.6.6,0,0,0,43.611,23.311ZM42.758,24.5a2.43,2.43,0,0,0-1.739,2.888L40.6,27.7a3.132,3.132,0,0,0-1.29-.314,2.111,2.111,0,0,0-.51.061,2.8,2.8,0,0,0-1.472,1.065l-.514-.077a2.8,2.8,0,0,0-1.094-1.452,2.459,2.459,0,0,0-1.285-.322,3.718,3.718,0,0,0-.508.036l-.31-.419a2.79,2.79,0,0,0,.253-1.8,2.792,2.792,0,0,0-1.065-1.473l.078-.514A2.8,2.8,0,0,0,34.335,21.4a2.8,2.8,0,0,0,.287-1.794l.418-.309a3.136,3.136,0,0,0,1.29.314,2.115,2.115,0,0,0,.51-.061,2.8,2.8,0,0,0,1.472-1.066l.514.078a2.79,2.79,0,0,0,1.093,1.451,2.451,2.451,0,0,0,1.286.324,3.727,3.727,0,0,0,.508-.036l.31.418a2.791,2.791,0,0,0-.254,1.8,2.8,2.8,0,0,0,1.066,1.474Z" transform="translate(3831.471 390.073)"/><path class="a" d="M46.425,28.855a2.366,2.366,0,1,0,.807,3.247A2.355,2.355,0,0,0,46.425,28.855Zm-.049,2.731a1.367,1.367,0,1,1-.467-1.876A1.36,1.36,0,0,1,46.376,31.586Z" transform="translate(3824.087 382.689)"/><path class="a" d="M10.382,33a.5.5,0,0,0-.5-.5H7.552a.5.5,0,1,0,0,1H9.883A.5.5,0,0,0,10.382,33Z" transform="translate(3847.956 380.032)"/><path class="a" d="M14.081,48.357,12.016,49.44a.5.5,0,1,0,.464.885l2.064-1.083a.5.5,0,1,0-.464-.885Z" transform="translate(3844.823 369.494)"/><path class="a" d="M12.017,14.387l2.063,1.084a.5.5,0,0,0,.465-.885L12.481,13.5a.5.5,0,0,0-.464.885Z" transform="translate(3844.823 392.741)"/><path class="a" d="M85.778,32.5H83.447a.5.5,0,1,0,0,1h2.331a.5.5,0,0,0,0-1Z" transform="translate(3797.337 380.032)"/><path class="a" d="M81.849,49.44l-2.064-1.083a.5.5,0,1,0-.464.885l2.064,1.083a.5.5,0,1,0,.464-.885Z" transform="translate(3799.934 369.494)"/><path class="a" d="M79.554,15.529a.5.5,0,0,0,.231-.057l2.064-1.084a.5.5,0,0,0-.465-.885l-2.063,1.084a.5.5,0,0,0,.233.942Z" transform="translate(3799.934 392.74)"/></g></svg>