<svg xmlns="http://www.w3.org/2000/svg" viewBox="0 0 29.869 29.869"><defs><style>.a{fill:#faa42d;}</style></defs><g transform="translate(-3841.388 -503.95)"><path class="a" d="M44.57,12.1a.5.5,0,0,0,.369.164h0a.5.5,0,0,0,.369-.163l2.08-2.286a.5.5,0,1,0-.739-.672l-1.211,1.331,0-4.818a.5.5,0,0,0-.5-.5h0a.5.5,0,0,0-.5.5l0,4.816-1.208-1.33a.5.5,0,0,0-.74.672Z" transform="translate(3811.417 498.793)"/><path class="a" d="M70.751,67.488a.5.5,0,0,0-.476.522l.085,1.8-3.4-3.409a.5.5,0,1,0-.707.706l3.4,3.409-1.8-.087a.5.5,0,0,0-.048,1l3.087.149h.024a.5.5,0,0,0,.5-.523l-.146-3.087A.5.5,0,0,0,70.751,67.488Z" transform="translate(3795.583 458.045)"/><path class="a" d="M9.814,47.18,12.1,45.1a.5.5,0,0,0,0-.739l-2.286-2.08a.5.5,0,0,0-.672.739l1.331,1.212-4.818,0h0a.5.5,0,0,0,0,1l4.816,0-1.33,1.208a.5.5,0,0,0,.672.74Z" transform="translate(3836.232 474.118)"/><path class="a" d="M45.1,73.665a.5.5,0,0,0-.37-.164h0a.5.5,0,0,0-.369.163L42.283,75.95a.5.5,0,1,0,.739.672l1.212-1.332,0,4.819a.5.5,0,0,0,.5.5h0a.5.5,0,0,0,.5-.5l0-4.815,1.208,1.329a.5.5,0,0,0,.74-.672Z" transform="translate(3811.556 453.21)"/><path class="a" d="M19.7,18.833l1.794.086a.5.5,0,0,0,.048-1l-3.087-.148a.494.494,0,0,0-.377.146.5.5,0,0,0-.146.377l.146,3.087a.5.5,0,0,0,.5.476H18.6a.5.5,0,0,0,.476-.523l-.085-1.8,3.4,3.411a.5.5,0,0,0,.707-.706Z" transform="translate(3827.712 490.379)"/><path class="a" d="M80.11,44.446l-4.815,0,1.329-1.207a.5.5,0,0,0-.672-.74l-2.287,2.078a.5.5,0,0,0,0,.739l2.286,2.079a.5.5,0,1,0,.672-.739L75.29,45.44l4.819,0h0a.5.5,0,0,0,0-1Z" transform="translate(3790.649 473.977)"/><path class="a" d="M22.24,66.251l-3.408,3.4.086-1.794a.5.5,0,1,0-1-.047L17.773,70.9a.5.5,0,0,0,.5.523H18.3l3.087-.146a.5.5,0,1,0-.047-1l-1.8.085,3.41-3.4a.5.5,0,0,0-.707-.707Z" transform="translate(3827.818 458.143)"/><path class="a" d="M41.059,32a4.442,4.442,0,0,0-4.5,4.262A3.734,3.734,0,0,0,38,39.274c.5.477.766.75.766,1.257v2.627A1.334,1.334,0,0,0,40.1,44.49H41.98a1.333,1.333,0,0,0,1.332-1.331l0-2.628c0-.5.267-.777.779-1.254a3.716,3.716,0,0,0,1.461-3.014A4.443,4.443,0,0,0,41.059,32Zm.921,11.49H40.1a.338.338,0,0,1-.333-.333V41.992h2.552l0,1.166A.338.338,0,0,1,41.98,43.491Zm1.433-4.945a2.626,2.626,0,0,0-1.1,1.984v.463H39.763v-.463a2.636,2.636,0,0,0-1.077-1.982,2.782,2.782,0,0,1-1.124-2.286,3.505,3.505,0,0,1,6.994,0A2.766,2.766,0,0,1,43.413,38.546Z" transform="translate(3815.285 480.889)"/><path class="a" d="M66.751,23.248A.5.5,0,0,0,67.1,23.1l3.408-3.4-.086,1.794a.5.5,0,0,0,.475.523h.024a.5.5,0,0,0,.5-.476l.148-3.087a.5.5,0,0,0-.523-.523l-3.087.146a.5.5,0,1,0,.047,1l1.8-.085-3.409,3.4a.5.5,0,0,0,.353.853Z" transform="translate(3795.484 490.273)"/></g></svg>