<svg xmlns="http://www.w3.org/2000/svg" viewBox="0 0 27.537 27.457"><defs><style>.a{fill:#faa42d;}</style></defs><g transform="translate(-3790.382 -351.086)"><g transform="translate(3790.382 351.086)"><path class="a" d="M35.667,15.914a1.048,1.048,0,0,0,.521-.967l-.126-.69a1.044,1.044,0,0,0-.826-.723,1.131,1.131,0,0,1-.791-1.47,1.1,1.1,0,0,0-.128-1.1s-.005-.006-.255-.244-.255-.243-.255-.243a1.053,1.053,0,0,0-.629-.194.988.988,0,0,0-.48.115.9.9,0,0,1-.409.09,1.154,1.154,0,0,1-.5-.12A1.027,1.027,0,0,1,31.2,9.67a1.044,1.044,0,0,0-.758-.793l-.695-.094H29.7a1.056,1.056,0,0,0-.9.565,1.028,1.028,0,0,1-.755.51,1.267,1.267,0,0,1-.224.021.982.982,0,0,1-.663-.234,1.037,1.037,0,0,0-.714-.271.9.9,0,0,0-.366.073l-.617.334a1.045,1.045,0,0,0-.432,1.009.992.992,0,0,1-.155.651,12.662,12.662,0,1,0,8.622,8.724c.019-.023.034-.046.056-.068a1.069,1.069,0,0,1,.768-.353.525.525,0,0,1,.074,0,.769.769,0,0,0,.118.009,1.058,1.058,0,0,0,.871-.485l.307-.631a1.048,1.048,0,0,0-.245-1.07,1.13,1.13,0,0,1,.224-1.654Zm-16.489-3.79-.271.487A1.647,1.647,0,0,0,19,14.268l.76,1.068a1.343,1.343,0,0,1,.182.817l-.2,1.075a.955.955,0,0,1-.443.57l-1.336.617a1.169,1.169,0,0,0-.571,1.547l.564,1.229a1.82,1.82,0,0,1,.1.934l-.161.7a1.184,1.184,0,0,1-.485.632l-.987.524a.775.775,0,0,1-.644-.027l-.807-.519a1.681,1.681,0,0,0-1.658-.032l-.809.479a1,1,0,0,0-.218,1.6l.453.473a.943.943,0,0,1,.2.685l-.09.433a1.918,1.918,0,0,1-.477.827l-.409.366a10.554,10.554,0,0,0-.876.909,11.649,11.649,0,0,1,8.095-17.042ZM11.634,30.069l.145-.18a9.431,9.431,0,0,1,.848-.89l.408-.366a2.866,2.866,0,0,0,.788-1.367l.09-.433a1.915,1.915,0,0,0-.453-1.581l-.453-.473c-.012-.012-.018-.022-.021-.023a.1.1,0,0,1,.028-.021l.809-.479a.7.7,0,0,1,.608.012l.807.52a1.757,1.757,0,0,0,1.653.07l.987-.524a2.161,2.161,0,0,0,.99-1.291l.161-.7a2.777,2.777,0,0,0-.162-1.575L18.3,19.545a.17.17,0,0,1,.082-.222l1.336-.617a1.942,1.942,0,0,0,1.007-1.3l.2-1.075a2.308,2.308,0,0,0-.351-1.577l-.76-1.068a.665.665,0,0,1-.033-.591l.631-1.133c.3-.023.6-.038.9-.038a11.543,11.543,0,0,1,1.98.178.972.972,0,0,0-.405.366l-.307.631a1.047,1.047,0,0,0,.245,1.07,1.13,1.13,0,0,1-.223,1.654,1.049,1.049,0,0,0-.521.967l.126.69a1.044,1.044,0,0,0,.826.723,1.131,1.131,0,0,1,.79,1.469,1.1,1.1,0,0,0,.129,1.1s.005.006.254.244.256.243.256.243a1.054,1.054,0,0,0,.63.194.985.985,0,0,0,.479-.115.9.9,0,0,1,.408-.089,1.156,1.156,0,0,1,.5.12,1.026,1.026,0,0,1,.592.693,1.045,1.045,0,0,0,.758.793l.695.094h.046a1.055,1.055,0,0,0,.9-.565,1.027,1.027,0,0,1,.755-.509,1.271,1.271,0,0,1,.224-.021.982.982,0,0,1,.663.234,1.038,1.038,0,0,0,.714.27.9.9,0,0,0,.366-.073l.617-.334c.014-.009.027-.021.041-.031a11.71,11.71,0,0,1,.119,1.653c0,.229-.008.455-.021.68l-.26-.145a2.681,2.681,0,0,0-1.568-.263l-1.741.308a1.993,1.993,0,0,0-1.313.98l-.3.6a2.681,2.681,0,0,0-.194,1.578L28,29.255a.258.258,0,0,1-.158.278l-.891.3a3.135,3.135,0,0,1-1.081.115l-1.909-.212a3.037,3.037,0,0,1-1.017-.354l-.307-.191a1.231,1.231,0,0,0-1.629.3L19.651,31.3a1.169,1.169,0,0,0,.234,1.632l.371.278a.547.547,0,0,1,.167.5L20,35.161A11.663,11.663,0,0,1,11.634,30.069Zm9.678,5.168c-.1,0-.194,0-.292-.007l.361-1.242a1.53,1.53,0,0,0-.528-1.578l-.371-.278a.164.164,0,0,1-.064-.109.166.166,0,0,1,.031-.123l1.356-1.808a.241.241,0,0,1,.3-.056l.306.191a3.935,3.935,0,0,0,1.436.5l1.909.212a4.093,4.093,0,0,0,1.507-.16l.892-.3a1.251,1.251,0,0,0,.817-1.443l-.429-1.932a1.711,1.711,0,0,1,.112-.914l.3-.6a1.007,1.007,0,0,1,.594-.443l1.741-.308a1.7,1.7,0,0,1,.909.152l.634.352A11.674,11.674,0,0,1,21.312,35.238ZM35.178,15.043a2.123,2.123,0,0,0-.437,3.234c0,.005,0,.011,0,.018l-.219.451-.013.007a1.559,1.559,0,0,0-.194-.011,2.087,2.087,0,0,0-1.49.661,2.048,2.048,0,0,0-.576,1.707l-.007.018-.44.238-.018,0a2,2,0,0,0-1.341-.5,2.265,2.265,0,0,0-.4.037,2.049,2.049,0,0,0-1.468,1.042l-.017.011-.5-.067-.012-.013a2.047,2.047,0,0,0-1.138-1.4,2.143,2.143,0,0,0-.937-.219,1.913,1.913,0,0,0-.87.2h-.017l-.03,0L24.9,20.3l-.165-.158a.2.2,0,0,1,0-.046,2.123,2.123,0,0,0-1.543-2.88l-.013-.011-.09-.493.01-.017a2.123,2.123,0,0,0,.436-3.234l0-.018.219-.451.012-.007a1.56,1.56,0,0,0,.194.011,2.086,2.086,0,0,0,1.49-.661,2.05,2.05,0,0,0,.576-1.707l.007-.017.44-.239.017,0a2,2,0,0,0,1.341.5,2.264,2.264,0,0,0,.4-.037A2.05,2.05,0,0,0,29.691,9.8l.018-.011.5.067.011.013a2.049,2.049,0,0,0,1.139,1.4,2.14,2.14,0,0,0,.935.218,1.917,1.917,0,0,0,.872-.2h.017l.029,0,.165.158.165.158a.2.2,0,0,1,0,.045,2.123,2.123,0,0,0,1.543,2.881l.013.011.09.493Z" transform="translate(-8.656 -8.781)"/><path class="a" d="M63.517,20.121a3.311,3.311,0,1,0,2.288.919A3.3,3.3,0,0,0,63.517,20.121Zm1.67,4.909a2.311,2.311,0,0,1-3.268.073,2.312,2.312,0,1,1,3.268-.073Z" transform="translate(-43.038 -16.344)"/></g></g></svg>