<svg xmlns="http://www.w3.org/2000/svg" viewBox="0 0 25.644 22.646"><defs><style>.a{fill:#faa42d;}</style></defs><g transform="translate(-3872.975 -550.908)"><g transform="translate(3872.975 550.908)"><path class="a" d="M36.312,16H13.332A1.336,1.336,0,0,0,12,17.332V37.314a1.336,1.336,0,0,0,1.332,1.332h22.98a1.336,1.336,0,0,0,1.332-1.332V17.332A1.336,1.336,0,0,0,36.312,16Zm-22.98,1h22.98a.338.338,0,0,1,.333.333V20H13V17.332A.338.338,0,0,1,13.332,17Zm2.719,20.367-.038-.045c-.006-.076-.022-.3-.022-.625s.016-.551.022-.625l.038-.045a2.552,2.552,0,0,0,1.317-4.035v-.017l.774-1.065.02,0a3.059,3.059,0,0,0,.888.132,2.513,2.513,0,0,0,1.491-.463,2.766,2.766,0,0,0,1.05-2.164l.009-.016,1.253-.4.018.007a2.551,2.551,0,0,0,4.239,0l.018-.007,1.252.4.01.016a2.765,2.765,0,0,0,1.05,2.164,2.513,2.513,0,0,0,1.49.463,3.055,3.055,0,0,0,.889-.132l.02,0,.774,1.065v.016a2.552,2.552,0,0,0,1.317,4.036l.038.045c.006.076.022.3.022.624s-.016.551-.022.625l-.038.045a3.01,3.01,0,0,0-.6.281H29.506a4.641,4.641,0,1,0-9.036,0H16.648A2.979,2.979,0,0,0,16.051,37.366Zm5.295-.753a3.642,3.642,0,0,1,7.284,0,3.6,3.6,0,0,1-.155,1.035H21.5A3.6,3.6,0,0,1,21.346,36.613Zm14.965,1.035h-1.4a.837.837,0,0,0,.046-.19s.03-.278.03-.761-.03-.76-.03-.76a1.1,1.1,0,0,0-.709-.856,1.558,1.558,0,0,1-.818-2.517,1.042,1.042,0,0,0,.049-1.1l-.892-1.227a1.057,1.057,0,0,0-.78-.336.859.859,0,0,0-.279.044,2.019,2.019,0,0,1-.6.089,1.519,1.519,0,0,1-.9-.272,1.8,1.8,0,0,1-.638-1.374,1.047,1.047,0,0,0-.6-.917l-1.444-.466a.811.811,0,0,0-.2-.023,1.059,1.059,0,0,0-.832.409,1.8,1.8,0,0,1-1.322.734,1.8,1.8,0,0,1-1.322-.734,1.059,1.059,0,0,0-.832-.409.813.813,0,0,0-.2.023l-1.444.466a1.046,1.046,0,0,0-.6.917,1.8,1.8,0,0,1-.638,1.373,1.52,1.52,0,0,1-.9.272,2.023,2.023,0,0,1-.6-.089.859.859,0,0,0-.279-.044,1.056,1.056,0,0,0-.78.336L16.5,31.467a1.043,1.043,0,0,0,.049,1.1,1.558,1.558,0,0,1-.817,2.516,1.1,1.1,0,0,0-.709.856s-.03.278-.03.761.03.761.03.761a.821.821,0,0,0,.046.191H13.332A.338.338,0,0,1,13,37.315V21H36.645V37.314A.338.338,0,0,1,36.312,37.647Z" transform="translate(-12 -16)"/><circle class="a" cx="0.833" cy="0.833" r="0.833" transform="translate(22.313 1.665)"/><circle class="a" cx="0.833" cy="0.833" r="0.833" transform="translate(19.982 1.665)"/><circle class="a" cx="0.833" cy="0.833" r="0.833" transform="translate(17.651 1.665)"/></g></g></svg>