<svg xmlns="http://www.w3.org/2000/svg" xmlns:xlink="http://www.w3.org/1999/xlink" viewBox="0 0 534.82 565.97"><defs><style>.cls-1{fill:none;}.cls-2{clip-path:url(#clip-path);}.cls-3{clip-path:url(#clip-path-2);}.cls-4{fill:#00a477;}.cls-5{fill:#1b1024;stroke:#f4eddc;stroke-miterlimit:10;stroke-width:13.64px;}.cls-6{fill:#ea5f5a;}.cls-7{fill:#f4eddc;}.cls-8{fill:#fcd033;}</style><clipPath id="clip-path"><rect class="cls-1" x="-1013.59" y="1106.69" width="800" height="448.17"/></clipPath><clipPath id="clip-path-2"><circle class="cls-1" cx="-606.89" cy="1616.02" r="453.27"/></clipPath></defs><title>detonante2018</title><g id="STD"><g class="cls-2"><g class="cls-3"><rect class="cls-4" x="-1139.75" y="-49.08" width="1575.16" height="2235.96"/></g></g></g><g id="Layer_3" data-name="Layer 3"><rect class="cls-5" x="7" y="6.93" width="520.54" height="551.4"/><polygon class="cls-6" points="300.21 162.66 301.33 162.52 326.73 139.06 298.96 161.35 300.21 162.66"/><path class="cls-6" d="M314.88,213.64a16.75,16.75,0,0,0-1.55,1.61l2.46.86-.1-2.13Z"/><polygon class="cls-6" points="301.23 164.97 302.08 166.39 330.61 143.48 302.83 162.8 301.23 164.97"/><path class="cls-6" d="M309.9,200.52l-.08-1.53c-.46.46-.9.95-1.32,1.44Z"/><path class="cls-6" d="M304.74,206.12c-.44.87-.83,1.74-1.19,2.62l9.5,2.61,2.87-.71.1-.6Z"/><polygon class="cls-6" points="295.39 164.22 297.42 163.72 297.63 162.43 295.39 164.22"/><polygon class="cls-6" points="270.52 148.45 274.47 112.47 267.85 148.45 270.52 148.45"/><path class="cls-6" d="M266.06,148.45h1.07l1.34-36.58-3.92,35.67A1.93,1.93,0,0,1,266.06,148.45Z"/><polygon class="cls-6" points="273.97 148.45 280.42 113.47 271.31 148.45 273.97 148.45"/><polygon class="cls-6" points="277.53 148.45 286.28 114.87 274.88 148.45 277.53 148.45"/><path class="cls-6" d="M279.43,148.45A2.53,2.53,0,0,1,281,149l11-32.34L278.6,148.45Z"/><path class="cls-6" d="M281.66,150.14s0,.07,0,.11a1.66,1.66,0,0,1-.76,1.34l-2.28,4.48L280,152a2.35,2.35,0,0,1-.6.08h-2.35l-1.28,3,.79-3h-2.94l-.75,2.23.41-2.23h-2.94l-.43,1.63.18-1.63h-2.94l-.23,1.23.05-1.23h-.7v21.05a45.27,45.27,0,0,1,11.27,2.67,10.66,10.66,0,0,1,1-1.07c4.29-4,13.94-7.58,18-9l-1.83-1-1.24,1,1-1.11-.22-.12.44-.11,3-3.21.13-.83.33.34,24.24-25.76-31.15,28.79L318,131l-29,30.8,24.23-34.35-26.67,32.66,21.66-35.9L284.06,158.6l19-37.24L281.4,157.25l16.22-38.43Z"/><path class="cls-6" d="M220.54,229.65c0-.09,0-.26,0-.48l-1,.93Z"/><path class="cls-6" d="M311.22,218.4l29,12.35-27.86-14.18A19.4,19.4,0,0,0,311.22,218.4Z"/><path class="cls-6" d="M306.09,216.21c1-.46,2-.89,3-1.29l-6.54-3.33q-.44,1.42-.75,2.79Z"/><path class="cls-6" d="M310.59,214.3c1.14-.45,2.19-.84,3.1-1.17l-10.16-4.33c-.36.9-.68,1.81-1,2.7Z"/><polygon class="cls-6" points="348.9 191.56 313.19 191.57 314.53 192.96 319.13 192.41 318.24 193.61 348.9 191.56"/><path class="cls-6" d="M302.5,167.09l.35.58-1-.21-4.46,2.66,3.57-2.86-1.25-.29-2.45,2.45-.13-2.69-1.6,1.12,1.58-1.47v-.32c-6,4.79-7.09,12.94-7.3,15.76a73.68,73.68,0,0,1,6.38,4.71L283.2,213c7.32-6.38,20.34-12.49,26.27-15.09l-.13-.07-3.75-.51h2.83l-2.89-1.58,4.2-1-4-.27,4.61-.3.41-2.58h-5.12l5.23-.71.24-1.51,1.26,1.31,36.16-4.86-43.21,2.89,42.37-8.61-42.89,5.77,41.63-11.42L304,183l40.71-14.17L303.08,180.3l39.57-16.86L302,177.62l38.24-19.46L300.63,175l36.73-22-38.24,19.46,35-24.36Z"/><path class="cls-6" d="M262.78,148.45a1.92,1.92,0,0,1,1-.79l-1.31-36-1.34,36.79Z"/><path class="cls-6" d="M309.26,223.44c-.21.75-.37,1.46-.49,2.12l25.39,15.19Z"/><path class="cls-6" d="M277.05,221.5a34.94,34.94,0,0,0-25.28,0,116.51,116.51,0,0,1,12.8-.71A113.45,113.45,0,0,1,277.05,221.5Z"/><path class="cls-6" d="M308.33,229c1.14.41,2.26.83,3.35,1.25l-3.23-2.59C308.39,228.17,308.35,228.62,308.33,229Z"/><path class="cls-6" d="M301.14,217.79q-.09.54-.15,1.05c.29-.18.6-.35.9-.52Z"/><path class="cls-6" d="M305.21,216.62l-3.46-2.06c-.22,1-.41,2-.56,2.88l1.19.61C303.3,217.56,304.25,217.08,305.21,216.62Z"/><path class="cls-6" d="M310.54,219.81c-.3.67-.56,1.34-.78,2l27.6,14Z"/><polygon class="cls-6" points="209.71 192.41 214.31 192.96 215.65 191.57 175.97 191.56 210.8 193.89 209.71 192.41"/><polygon class="cls-6" points="209.1 211.89 207.97 210.35 180.15 220.04 208.96 212.13 209.1 211.89"/><polygon class="cls-6" points="315.97 216.17 342.65 225.47 317.42 214.72 315.97 216.17"/><path class="cls-6" d="M207.31,236.34l13-9.06c-.09-.71-.22-1.55-.42-2.46l-25.67,20.6,2.4-1.66A86.21,86.21,0,0,1,207.31,236.34Z"/><path class="cls-6" d="M218.86,221.18l-28.15,19.57,28.88-17.28C219.39,222.73,219.15,222,218.86,221.18Z"/><path class="cls-6" d="M215.39,215.12,213,216.31v0l0,0-28.35,14.43,32.15-13.7A17.49,17.49,0,0,0,215.39,215.12Z"/><polygon class="cls-6" points="210.59 213.89 208.02 214.47 182.21 225.47 211.84 215.15 210.59 213.89"/><path class="cls-6" d="M217.38,218l-29.87,17.87,30.92-15.74A21,21,0,0,0,217.38,218Z"/><polygon class="cls-6" points="318.59 200.69 313.82 199.62 312.72 200.71 348.48 203.11 317.55 198.95 318.59 200.69"/><polygon class="cls-6" points="316.1 196.53 316.59 197.34 348.9 197.34 317.07 195.21 316.1 196.53"/><polygon class="cls-6" points="319.74 211.89 320.65 213.43 344.71 220.04 320.06 211.45 319.74 211.89"/><path class="cls-6" d="M304.79,206l11.49,2.34.18-1.12,1.39,1.44,3.09.63.76-.09-.16.21,24.84,5-40.13-11C305.72,204.31,305.23,205.16,304.79,206Z"/><path class="cls-6" d="M310,203.39l-.1-2.23-1.74-.35a26.45,26.45,0,0,0-1.81,2.47l41.26,5.55-35.77-7.27Z"/><polygon class="cls-6" points="212.74 196.53 211.58 194.96 175.97 197.34 212.25 197.34 212.74 196.53"/><path class="cls-6" d="M230.8,160.4l.08-.08,0,.22,2.57,3.15-2.43-2.24.36,2.27,3.05.75-2.25,1.23c4.1,1.43,13.74,5,18,9a11.66,11.66,0,0,1,1.06,1.14,47.26,47.26,0,0,1,11.21-2.72V152.06H261l0,1-.11-1h-2.94l0,1.23-.23-1.23h-2.94l.18,1.63-.43-1.63h-2.93l.41,2.23-.76-2.23h-1.8a2.64,2.64,0,0,1-1.21-.29l.86,3.32-16.22-38.43,13.39,39.41-19-37.25,16.23,38.43-21.66-35.89,19,37.24-24.22-34.36,21.66,35.9-26.66-32.66,24.22,34.35-29-30.8Z"/><path class="cls-6" d="M213.12,214.7l1.43-.5A17.67,17.67,0,0,0,213.2,213Z"/><path class="cls-6" d="M249.41,148.45H250l-11.4-33.58,9,34.38A2.45,2.45,0,0,1,249.41,148.45Z"/><polygon class="cls-6" points="227.6 164.97 225.64 162.3 227.33 162.5 198.14 139.06 227.1 165.82 227.6 164.97"/><polygon class="cls-6" points="253.56 148.45 244.44 113.47 250.89 148.45 253.56 148.45"/><polygon class="cls-6" points="257.02 148.45 250.39 112.47 254.34 148.45 257.02 148.45"/><polygon class="cls-6" points="228.62 162.66 230.39 160.83 202.33 134.9 228.43 162.63 228.62 162.66"/><path class="cls-6" d="M212.38,207.24l.05.34,8.42-1.72-8.24,2.87.31,1.91.77.19,8.09-2.22-6.26,2.67.44.11-2.24,1.23,2.63.95,6.56-2.28L217.54,214c1,.4,2.13.85,3.26,1.33l3.44-1.46-2.87,1.71c1,.45,2.08.93,3.11,1.43l1.27-.64-1.07.74c1.1.54,2.17,1.11,3.17,1.71-.77-6-2.94-13.93-8.83-19.85l-.07,1.27.64,0-.64.14-.14,2.89,1.31-.18-41.64,11.42L212,207.67Z"/><polygon class="cls-6" points="216.3 200.88 177.23 208.83 218.67 203.25 216.3 200.88"/><polygon class="cls-6" points="260.41 148.45 256.4 111.87 257.73 148.45 260.41 148.45"/><path class="cls-6" d="M216.06,191.13l1.72-1.78.33,2.06,1.17.16h-1.15l.45,2.84.59,0-.58,0,0,.11,4.7,1.16-3.94,2.16c5.93,2.6,18.95,8.71,26.27,15.09l-13-26.48a74.45,74.45,0,0,1,6.38-4.65c-.19-2.77-1.28-11-7.3-15.82l-.16,3.36L229.09,167l-.59.14.79.74-1-.7-2.31.52.9-1.5-32.64-22.69,33.18,26.64-36.72-22,35,24.36-38.24-19.46,36.73,22-39.57-16.86,38.24,19.46-40.7-14.18,39.57,16.86-41.63-11.43L220.85,183l-42.37-8.61,41.64,11.42-42.89-5.77,42.36,8.61-43.2-2.89Z"/><polygon class="cls-6" points="215.02 199.62 210.25 200.69 211.64 198.37 176.39 203.11 215.87 200.46 215.02 199.62"/><path class="cls-7" d="M247.19,260.81v-2.6c-21.44,4.69-33.69,16.16-33.69,16.16A147.74,147.74,0,0,1,247.19,260.81Z"/><path class="cls-7" d="M282.92,260.51c19.77,4.4,39.41,13.86,39.41,13.86a114.46,114.46,0,0,0-39.41-16.32Z"/><path class="cls-7" d="M260.38,205.2l.23.77h.83c2.32,0,4.86-.05,6.29,0a3,3,0,0,1-1.07,1.07c-5.12-.29-5.24-.14-5.62.33l-.36.45.13.35a3.45,3.45,0,0,0,1.14,2.73,5.1,5.1,0,0,0,3.3,1.06,5.89,5.89,0,0,0,.72,0,1.05,1.05,0,0,0,.93-1.16,1.07,1.07,0,0,0-1.21-.89,3.39,3.39,0,0,1-2.29-.5,1.12,1.12,0,0,1-.3-.41c1,0,2.44.08,3.75.16h.28l.25-.12c.12-.05,2.9-1.37,2.69-4.11-.07-1-.89-1-2.25-1H265.2l-3,0c-.51-1.62-1.81-5.37-3.35-7.28-.87-1.08-2.5-5.36-1-8.64,1-2.23,3.28-3.54,6.76-3.89,3.23.25,5.54,1.31,6.87,3.14a8.51,8.51,0,0,1,1.12,6.39,13,13,0,0,1-2.08,3,11.4,11.4,0,0,0-1.93,2.81l-.1.3c-.18.5-.38,1.09-.53,1.42a2.47,2.47,0,0,1-1.8-.55c-.66-.61-.9-1.78-.72-3.41a3.69,3.69,0,1,0-2.14-.32c-.28,2.4.19,4.17,1.41,5.26a4.9,4.9,0,0,0,4.09,1c.86-.2,1.13-1,1.73-2.74l.11-.3a11.88,11.88,0,0,1,1.58-2.19,13.42,13.42,0,0,0,2.45-3.68,10.46,10.46,0,0,0-1.4-8.14c-1.72-2.4-4.61-3.76-8.59-4.06h-.19c-5.45.52-7.69,3.09-8.62,5.15-1.75,3.9-.11,9,1.3,10.71C258.87,200,260.37,205.15,260.38,205.2ZM264.71,195a1.13,1.13,0,0,0-.41,0,1.6,1.6,0,0,1-.95-1.47,1.55,1.55,0,1,1,1.69,1.58A.93.93,0,0,0,264.71,195Z"/><path class="cls-7" d="M190.8,256.26a10,10,0,0,0-7.51,1.32l-6,3.32,9.18,15.25,6-3.34c2.72-1.5,4.4-3.32,5-5.49a8.31,8.31,0,0,0-1.14-6.75A8.87,8.87,0,0,0,190.8,256.26Zm-.39,13.62-2.31,1.27L182.61,262l2.29-1.26c1.9-1,3.47-1.36,4.71-1a5.72,5.72,0,0,1,3.2,2.73C194.49,265.33,194.16,267.81,190.41,269.88Z"/><polygon class="cls-7" points="215.4 257.71 207.52 261.2 205.87 257.79 213.08 254.59 211.56 251.46 204.35 254.65 202.9 251.65 210.61 248.23 209.06 245.03 197.66 250.08 205.39 266.04 216.95 260.92 215.4 257.71"/><polygon class="cls-7" points="227.51 238.5 214.34 242.91 215.56 246.25 220.27 244.67 225.13 257.94 228.97 256.65 224.1 243.39 228.74 241.83 227.51 238.5"/><path class="cls-7" d="M253.61,241.86a8.58,8.58,0,0,0-4.15-5.79,10,10,0,0,0-7.35-1.28,9.76,9.76,0,0,0-6.28,3.92,8.36,8.36,0,0,0-1.45,6.87,8.67,8.67,0,0,0,4.13,5.82,10.2,10.2,0,0,0,7.37,1.26,9.78,9.78,0,0,0,6.29-3.9A8.42,8.42,0,0,0,253.61,241.86Zm-4.81,5a5.44,5.44,0,0,1-3.65,2.35,5.76,5.76,0,0,1-4.34-.78,5.48,5.48,0,0,1-2.45-3.6,5.22,5.22,0,0,1,.81-4.17,5.48,5.48,0,0,1,3.67-2.38,5.67,5.67,0,0,1,4.35.83,5.4,5.4,0,0,1,2.44,3.54A5.21,5.21,0,0,1,248.8,246.84Z"/><polygon class="cls-7" points="264.09 240.09 276.18 251.01 276.62 232.74 272.61 232.66 272.37 242.65 260.28 231.7 259.84 249.97 263.85 250.06 264.09 240.09"/><path class="cls-7" d="M284.27,251.54l2-2.45,7.5,1.56.77,3,4.22.88-5.22-20.13-13.49,16.23Zm7.51-9.42,1.27,5-4.56-1Z"/><polygon class="cls-7" points="317.03 252.69 309.19 238.64 302.73 255.84 306.5 257.13 310.03 247.75 317.87 261.78 324.34 244.58 320.57 243.28 317.03 252.69"/><polygon class="cls-7" points="342.49 252.32 329.79 246.79 328.26 250.01 332.8 251.98 326.71 264.78 330.41 266.39 336.49 253.59 340.96 255.54 342.49 252.32"/><polygon class="cls-7" points="356.87 263.4 358.58 260.27 347.46 254.69 338.92 270.28 350.21 275.94 351.92 272.81 344.24 268.95 346.06 265.62 353.09 269.15 354.77 266.08 347.74 262.56 349.34 259.63 356.87 263.4"/><path class="cls-7" d="M264.65,223.32c31.4,0,75.85,21.42,75.85,21.42a148.34,148.34,0,0,0-32.09-16c.16-2.58,1.16-11.06,7.31-16l.16,3.36,2.45-2.45,3.1.7-1.61-2.7,2-2.68-3,.36L316.54,207l-.54,3.41-3,.75,2.24,1.23a86.12,86.12,0,0,0-14.13,6.21c.77-5.94,2.94-13.92,8.83-19.85l.21,4.4,3.79-3.77,4.77,1.08-2.49-4.16,3-4.13-4.6.55-3.47-3.6-.83,5.25-4.7,1.15,3.94,2.16c-5.93,2.61-18.95,8.71-26.27,15.1l13-26.48a69.42,69.42,0,0,0-6.38-4.71c.21-2.82,1.31-11,7.3-15.76l.16,3.36,2.45-2.45,3.1.7-1.62-2.7,2-2.68-3,.36L298,160.08l-.54,3.41-3.05.75,2.25,1.23c-4.1,1.42-13.75,5-18,9a10.66,10.66,0,0,0-1,1.07,44.86,44.86,0,0,0-11.26-2.67V151.82h13.12a1.85,1.85,0,1,0,0-3.6H266.14a1.92,1.92,0,0,0-3.28,0H249.49a1.85,1.85,0,1,0,0,3.6h13.13V172.9a47.21,47.21,0,0,0-11.22,2.72,10.62,10.62,0,0,0-1.06-1.14c-4.29-4-13.94-7.59-18-9l2.25-1.23-3.05-.75-.54-3.41-2.26,2.34-3-.36,2,2.68-1.62,2.7,3.1-.7,2.45,2.45.16-3.36c6,4.82,7.11,13,7.3,15.81a73,73,0,0,0-6.38,4.66l13,26.48c-7.32-6.39-20.34-12.49-26.27-15.1l3.94-2.16-4.7-1.15-.83-5.25-3.47,3.6-4.6-.55,3,4.13-2.49,4.16,4.77-1.08,3.79,3.77.21-4.4c5.89,5.93,8.06,13.91,8.83,19.85a86.12,86.12,0,0,0-14.13-6.21l2.24-1.23-3-.75-.54-3.41-2.26,2.34-3-.36,2,2.68-1.61,2.7,3.1-.7,2.45,2.45.16-3.36c6.94,5.56,7.32,15.64,7.34,16.67-16.31,6.9-25.3,15.32-25.3,15.32S232.32,223.32,264.65,223.32Zm0-2.75a116.51,116.51,0,0,0-12.8.71,34.94,34.94,0,0,1,25.28,0A113.45,113.45,0,0,0,264.65,220.57ZM237,187.23a54,54,0,0,1,8.79-5.52l0,0,.05,0c5.89-3.09,13.94-5.52,18.33-5.52h.9c4.47,0,12.31,2.39,18.24,5.55l0,0,0,0a52.52,52.52,0,0,1,8.6,5.47L283.56,190l4.73,3.52-6.3,3.52,3.52,3.37-.1.2c-1.39.26-8,1.56-6.57,2.46a20.47,20.47,0,0,1,3.55,3.69l-.45.91-6.26.43,3.95,4.26-.13.27h-4.34l1.87,5a38.43,38.43,0,0,0-25.06,0Z"/><path class="cls-8" d="M257.42,264.05h-7.23l2.23-2.31c.58-.61,1-1.13,1.38-1.55a9.22,9.22,0,0,0,.74-1.08,2.53,2.53,0,0,0,.3-.71,2.31,2.31,0,0,0,.06-.47,1.32,1.32,0,0,0-.06-.39.9.9,0,0,0-.2-.34.92.92,0,0,0-.31-.24,1,1,0,0,0-.44-.09.91.91,0,0,0-.74.31,1.16,1.16,0,0,0-.27.78,2.31,2.31,0,0,0,0,.38h-2.55a3.83,3.83,0,0,1,.25-1.43,3.23,3.23,0,0,1,.72-1.11,3.28,3.28,0,0,1,1.1-.72,4,4,0,0,1,1.4-.25,3.9,3.9,0,0,1,1.39.24,3.22,3.22,0,0,1,1.1.67,3,3,0,0,1,.73,1,3,3,0,0,1,.26,1.28,3,3,0,0,1-.31,1.36,4.67,4.67,0,0,1-1,1.28l-1.49,1.4h2.91Z"/><path class="cls-8" d="M258.19,259.55a6.65,6.65,0,0,1,.28-1.95,4.5,4.5,0,0,1,.79-1.49,3.69,3.69,0,0,1,1.2-1,3.66,3.66,0,0,1,3.08,0,3.5,3.5,0,0,1,1.2,1,4.31,4.31,0,0,1,.78,1.49,6.93,6.93,0,0,1,0,3.9,4.45,4.45,0,0,1-.78,1.5,3.28,3.28,0,0,1-1.2,1,3.51,3.51,0,0,1-4.28-1,4.66,4.66,0,0,1-.79-1.5A6.61,6.61,0,0,1,258.19,259.55Zm2.31,0a5.05,5.05,0,0,0,.11,1.08,3.14,3.14,0,0,0,.3.85,1.61,1.61,0,0,0,.47.55,1.06,1.06,0,0,0,1.24,0,1.61,1.61,0,0,0,.47-.55,4,4,0,0,0,.3-.85,5.09,5.09,0,0,0,.1-1.08,5.22,5.22,0,0,0-.1-1.08,3.72,3.72,0,0,0-.3-.84,1.61,1.61,0,0,0-.47-.55,1.06,1.06,0,0,0-1.24,0,1.61,1.61,0,0,0-.47.55,3,3,0,0,0-.3.84A5.2,5.2,0,0,0,260.5,259.55Z"/><path class="cls-8" d="M268.6,257.05h-1.31v-2h3.65v9H268.6Z"/><path class="cls-8" d="M275.24,259.31a2,2,0,0,1-1.41-2,2.26,2.26,0,0,1,.23-1,2.54,2.54,0,0,1,.62-.8,2.89,2.89,0,0,1,1-.51,4,4,0,0,1,1.24-.18,4.15,4.15,0,0,1,1.25.18,2.94,2.94,0,0,1,1,.51,2.43,2.43,0,0,1,.63.8,2.26,2.26,0,0,1,.22,1,2.43,2.43,0,0,1-.07.63,1.5,1.5,0,0,1-.24.51,1.94,1.94,0,0,1-.46.44,3.61,3.61,0,0,1-.69.39,2.44,2.44,0,0,1,1.83,2.31,2.24,2.24,0,0,1-.25,1.06,2.66,2.66,0,0,1-.72.85,3.56,3.56,0,0,1-1.08.56,4.65,4.65,0,0,1-1.38.2,4.24,4.24,0,0,1-1.35-.2,3.39,3.39,0,0,1-1.09-.55,2.77,2.77,0,0,1-.73-.84,2.33,2.33,0,0,1-.26-1.08A2.39,2.39,0,0,1,275.24,259.31Zm.58,2a1.26,1.26,0,0,0,.08.43,1.18,1.18,0,0,0,.23.35,1,1,0,0,0,.34.24,1,1,0,0,0,.42.09,1,1,0,0,0,.41-.09,1.21,1.21,0,0,0,.35-.24,1.18,1.18,0,0,0,.23-.35,1,1,0,0,0,.08-.42,1,1,0,0,0-.31-.77,1.07,1.07,0,0,0-1.83.76Zm.08-4a1,1,0,0,0,.29.71,1,1,0,0,0,.7.29,1,1,0,0,0,.39-.08,1,1,0,0,0,.31-.22,1,1,0,0,0,.21-.32.94.94,0,0,0-.21-1.06.92.92,0,0,0-.7-.3,1,1,0,0,0-1,1Z"/><path class="cls-7" d="M112.08,389h-8.77V355.23h14c3.79,0,6.7,1,8.71,3s3,4.74,3,8.32-1,6.35-3,8.32-4.92,3-8.71,3h-5.19Zm0-18.26H115c3.22,0,4.84-1.41,4.84-4.21s-1.62-4.21-4.84-4.21h-2.91Z"/><path class="cls-7" d="M161.72,389H150.8l-8.37-13v13h-8.78V355.23h13.66a13.41,13.41,0,0,1,4.92.83,9.46,9.46,0,0,1,3.47,2.26,9.62,9.62,0,0,1,2.06,3.31,11.61,11.61,0,0,1,.69,4,9.86,9.86,0,0,1-1.86,6.24,9.34,9.34,0,0,1-5.48,3.25Zm-19.29-18.67h1.65a6.4,6.4,0,0,0,4-1.07,4.15,4.15,0,0,0,0-6.18,6.47,6.47,0,0,0-4-1.07h-1.65Z"/><path class="cls-7" d="M163.24,372.1a17.53,17.53,0,0,1,1.39-7,17.28,17.28,0,0,1,3.85-5.66,17.59,17.59,0,0,1,5.88-3.78,21.38,21.38,0,0,1,15.06,0,17.71,17.71,0,0,1,5.93,3.78,17.18,17.18,0,0,1,3.87,5.66,18.35,18.35,0,0,1,0,14,17.18,17.18,0,0,1-3.87,5.66,17.71,17.71,0,0,1-5.93,3.78,21.38,21.38,0,0,1-15.06,0,17.59,17.59,0,0,1-5.88-3.78,17.28,17.28,0,0,1-3.85-5.66A17.54,17.54,0,0,1,163.24,372.1Zm9.17,0a8.94,8.94,0,0,0,.77,3.72,9.27,9.27,0,0,0,5.07,4.9,10,10,0,0,0,7.3,0,9.43,9.43,0,0,0,3-2,9.07,9.07,0,0,0,2.08-2.95,9.35,9.35,0,0,0,0-7.43,9.07,9.07,0,0,0-2.08-2.95,9.43,9.43,0,0,0-3-1.95,10,10,0,0,0-7.3,0,9.27,9.27,0,0,0-5.07,4.9A8.93,8.93,0,0,0,172.41,372.1Z"/><path class="cls-7" d="M206.16,389V355.23h8.77l16.2,20.63V355.23h8.73V389h-8.73l-16.2-20.64V389Z"/><path class="cls-7" d="M259.73,362.66V389H251V362.66h-7.21v-7.43h23.19v7.43Z"/><path class="cls-7" d="M269,372.1a17.36,17.36,0,0,1,11.12-16.44,21.38,21.38,0,0,1,15.06,0,17.81,17.81,0,0,1,5.93,3.78A17.18,17.18,0,0,1,305,365.1a18.35,18.35,0,0,1,0,14,17.18,17.18,0,0,1-3.87,5.66,17.81,17.81,0,0,1-5.93,3.78,21.38,21.38,0,0,1-15.06,0A17.41,17.41,0,0,1,269,372.1Zm9.17,0a9.1,9.1,0,0,0,.76,3.72,9.49,9.49,0,0,0,2.06,2.95,9.23,9.23,0,0,0,3,2,10,10,0,0,0,7.3,0,9.43,9.43,0,0,0,3-2,9.23,9.23,0,0,0,2.08-2.95,9.46,9.46,0,0,0,0-7.43,9.23,9.23,0,0,0-2.08-2.95,9.43,9.43,0,0,0-3-1.95,10,10,0,0,0-7.3,0,9.23,9.23,0,0,0-3,1.95,9.49,9.49,0,0,0-2.06,2.95A9.08,9.08,0,0,0,278.17,372.1Z"/><path class="cls-7" d="M325.61,389l5.73-33.75H340l6.76,18,6.71-18h8.69L367.91,389h-8.73l-2.91-19.43-8,19.43h-3.49l-7.56-19.43L334.34,389Z"/><path class="cls-7" d="M394.13,383.11H381.6l-2,5.87h-9.36l12.85-33.75h9.58L405.5,389h-9.35Zm-2.32-6.66-3.94-11.24-3.94,11.24Zm4.43-29.81-8.6,5.91-3.4-3.18,7.3-7Z"/><path class="cls-7" d="M427.92,363.87a10.61,10.61,0,0,0-2.86-1.72,7.49,7.49,0,0,0-2.78-.56,4.55,4.55,0,0,0-2.77.8,2.51,2.51,0,0,0-1.07,2.11A2.06,2.06,0,0,0,419,366a4.64,4.64,0,0,0,1.41,1,12.48,12.48,0,0,0,2,.74c.73.21,1.46.43,2.17.67a13.46,13.46,0,0,1,6.29,3.83,9.4,9.4,0,0,1,2,6.24,12.19,12.19,0,0,1-.87,4.7,9.78,9.78,0,0,1-2.55,3.6,11.72,11.72,0,0,1-4.12,2.33,17.23,17.23,0,0,1-5.53.83,20.32,20.32,0,0,1-11.86-3.81l3.76-7.07a15,15,0,0,0,3.9,2.6,9.45,9.45,0,0,0,3.8.85,4.53,4.53,0,0,0,3.2-1,3,3,0,0,0,1.05-2.23,3.07,3.07,0,0,0-.27-1.33,2.8,2.8,0,0,0-.89-1,6.9,6.9,0,0,0-1.64-.88c-.67-.27-1.48-.56-2.43-.89-1.14-.36-2.25-.76-3.34-1.19a10.55,10.55,0,0,1-2.91-1.72,8,8,0,0,1-2.06-2.71,9.62,9.62,0,0,1-.78-4.14,12,12,0,0,1,.83-4.54,10,10,0,0,1,2.33-3.49,10.16,10.16,0,0,1,3.67-2.26,13.74,13.74,0,0,1,4.85-.81,21,21,0,0,1,5.24.7,23.14,23.14,0,0,1,5.23,2Z"/><path class="cls-7" d="M98,408.94v33.74H89.26V408.94Z"/><path class="cls-7" d="M105.1,442.68V408.94h8.77l16.2,20.63V408.94h8.73v33.74h-8.73l-16.2-20.63v20.63Z"/><path class="cls-7" d="M165.21,416.37H154.65V422h9.62v7.43h-9.62v13.24h-8.78V408.94h19.34Z"/><path class="cls-7" d="M168.88,425.81a17.5,17.5,0,0,1,1.39-7,17.3,17.3,0,0,1,3.84-5.66,17.51,17.51,0,0,1,5.89-3.79,21.53,21.53,0,0,1,15.06,0,17.68,17.68,0,0,1,5.93,3.79,17.08,17.08,0,0,1,3.87,5.66,18.35,18.35,0,0,1,0,14,17.18,17.18,0,0,1-3.87,5.66,17.81,17.81,0,0,1-5.93,3.78,21.53,21.53,0,0,1-15.06,0,17.64,17.64,0,0,1-5.89-3.78,17.58,17.58,0,0,1-5.23-12.67Zm9.17,0a9.16,9.16,0,0,0,.76,3.72,9.61,9.61,0,0,0,2.06,3,9.4,9.4,0,0,0,3,1.95,10,10,0,0,0,7.3,0,9.6,9.6,0,0,0,3-1.95,9.18,9.18,0,0,0,2.08-3,9.46,9.46,0,0,0,0-7.43,9.12,9.12,0,0,0-2.08-3,9.82,9.82,0,0,0-10.34-1.94,9.37,9.37,0,0,0-3,1.94,9.54,9.54,0,0,0-2.06,3A9.08,9.08,0,0,0,178.05,425.81Z"/><path class="cls-7" d="M239.86,442.68H228.94l-8.37-13v13H211.8V408.94h13.65a13.21,13.21,0,0,1,4.92.83,9.28,9.28,0,0,1,5.53,5.57,11.56,11.56,0,0,1,.69,4,10,10,0,0,1-1.85,6.24,9.31,9.31,0,0,1-5.49,3.24ZM220.57,424h1.66a6.44,6.44,0,0,0,4-1.07,4.13,4.13,0,0,0,0-6.18,6.37,6.37,0,0,0-4-1.07h-1.66Z"/><path class="cls-7" d="M242,442.68l5.73-33.74h8.68l6.76,18,6.71-18h8.68l5.73,33.74h-8.72l-2.91-19.42-8,19.42h-3.49l-7.56-19.42-2.91,19.42Z"/><path class="cls-7" d="M310.53,436.82H298l-2,5.86h-9.35l12.85-33.74h9.57l12.85,33.74h-9.36Zm-2.33-6.67-3.94-11.23-3.93,11.23Z"/><path class="cls-7" d="M348.79,420.22a9.33,9.33,0,0,0-7.51-3.72,9.14,9.14,0,0,0-3.65.72,8.83,8.83,0,0,0-2.89,1.95,8.93,8.93,0,0,0-1.9,2.93,9.63,9.63,0,0,0-.69,3.67,9.76,9.76,0,0,0,.69,3.71,8.85,8.85,0,0,0,4.81,4.92,8.88,8.88,0,0,0,3.58.72,10.12,10.12,0,0,0,7.56-3.58v10.38l-.89.32a27.78,27.78,0,0,1-3.76,1.05,18.48,18.48,0,0,1-3.45.33,17.64,17.64,0,0,1-12.33-5,18.48,18.48,0,0,1-3.91-5.69,18.17,18.17,0,0,1,0-14.32A17.82,17.82,0,0,1,340.74,408a18.75,18.75,0,0,1,4,.42,25.08,25.08,0,0,1,4.09,1.32Z"/><path class="cls-7" d="M363.12,408.94v33.74h-8.77V408.94Z"/><path class="cls-7" d="M368.67,425.81a17.66,17.66,0,0,1,1.38-7,17.35,17.35,0,0,1,9.74-9.45,21.53,21.53,0,0,1,15.06,0,17.68,17.68,0,0,1,5.93,3.79,17.38,17.38,0,0,1,3.87,5.66,18.35,18.35,0,0,1,0,14,17.49,17.49,0,0,1-3.87,5.66,17.81,17.81,0,0,1-5.93,3.78,21.53,21.53,0,0,1-15.06,0,17.41,17.41,0,0,1-11.12-16.45Zm9.17,0a9,9,0,0,0,.76,3.72,9.33,9.33,0,0,0,5.08,4.9A9.74,9.74,0,0,0,394,432.48a9.34,9.34,0,0,0,2.08-3,9.46,9.46,0,0,0,0-7.43,9.27,9.27,0,0,0-2.08-3,9.68,9.68,0,0,0-3-1.94,9.87,9.87,0,0,0-7.3,0,9.24,9.24,0,0,0-5.08,4.9A8.92,8.92,0,0,0,377.84,425.81Zm17.55-25.46-8.6,5.9-3.4-3.17,7.3-7Z"/><path class="cls-7" d="M411.59,442.68V408.94h8.77l16.2,20.63V408.94h8.73v33.74h-8.73l-16.2-20.63v20.63Z"/></g></svg>