<svg xmlns="http://www.w3.org/2000/svg" viewBox="0 0 31.87 1871.646"><defs><style>.a{fill:#1b1024;}.b{fill:#f4eddc;}.c{fill:#faa42d;}</style></defs><g transform="translate(-3678 -437)"><g transform="translate(-182.484 773.555)"><path class="a" d="M37.627,54.456a.688.688,0,0,1,.2.248.725.725,0,0,1,.068.32.467.467,0,1,0,.934,0,1.684,1.684,0,0,0-.159-.725,1.706,1.706,0,0,0-.811-.794,2.563,2.563,0,0,0-.717-.216v-.317a.5.5,0,1,0-1,0v.3a2.341,2.341,0,0,0-.516.128,1.772,1.772,0,0,0-.887.714,1.724,1.724,0,0,0-.263.913,1.548,1.548,0,0,0,.216.821,1.526,1.526,0,0,0,.47.477,3.313,3.313,0,0,0,.979.4v1.923a1.112,1.112,0,0,1-.469-.216.731.731,0,0,1-.263-.582.467.467,0,1,0-.933,0,1.678,1.678,0,0,0,.592,1.3,2.1,2.1,0,0,0,1.072.458v.368a.5.5,0,1,0,1,0v-.383a2.4,2.4,0,0,0,.939-.315,1.559,1.559,0,0,0,.55-.581,1.91,1.91,0,0,0-.007-1.707,1.614,1.614,0,0,0-.46-.521,3.067,3.067,0,0,0-1.007-.449l-.014,0V54.246A1.262,1.262,0,0,1,37.627,54.456Zm-.163,2.665a.835.835,0,0,1,.321.27.786.786,0,0,1,.114.452.825.825,0,0,1-.086.4.723.723,0,0,1-.409.322,1.688,1.688,0,0,1-.258.071V56.989A2.045,2.045,0,0,1,37.464,57.12Zm-1.633-1.5a.81.81,0,0,1-.316-.234.58.58,0,0,1-.1-.364.786.786,0,0,1,.219-.541.9.9,0,0,1,.329-.209,1.331,1.331,0,0,1,.184-.053v1.52A2.323,2.323,0,0,1,35.831,55.622Z" transform="translate(3835.657 283.956)"/><path class="a" d="M34.437,20.793,15.634,10.65a1.316,1.316,0,0,0-.627-.159,1.337,1.337,0,0,0-1.179.7L8.461,21.227a1.223,1.223,0,0,0-.1.258H6.83A1.341,1.341,0,0,0,5.5,22.825v11.3A1.34,1.34,0,0,0,6.83,35.467h17.7a4,4,0,0,0,6.243-5l4.208-7.864A1.347,1.347,0,0,0,34.437,20.793ZM6.83,34.463a.339.339,0,0,1-.333-.335v-11.3a.339.339,0,0,1,.333-.335H19.866a3,3,0,0,0,5.946,0h2.326a.339.339,0,0,1,.334.335v6.067a4.01,4.01,0,0,0-4.6,5.571H6.83ZM20.837,22.1a2,2,0,1,1,2,2.009A2.007,2.007,0,0,1,20.837,22.1ZM27.507,35.8a3.014,3.014,0,1,1,3-3.014A3.011,3.011,0,0,1,27.507,35.8ZM34.1,22.131,30.056,29.69a4,4,0,0,0-.585-.4V22.825a1.341,1.341,0,0,0-1.334-1.339h-2.36a3,3,0,0,0-5.879,0H9.459l5.25-9.814a.337.337,0,0,1,.3-.176.319.319,0,0,1,.154.039l18.8,10.143A.341.341,0,0,1,34.1,22.131Z" transform="translate(3854.989 311.954)"/></g><g transform="translate(-176.008 822.961)"><path class="a" d="M30.332,7c-5.5,0-9.78,4.491-9.78,9.244,0,6.362,5.386,6.377,5.386,10.487v5.41a2.133,2.133,0,0,0,2.139,2.227h.116a2.008,2.008,0,0,0,2.139,1.274,2.008,2.008,0,0,0,2.139-1.273h.021a2.133,2.133,0,0,0,2.139-2.227V26.73c0-4.11,5.48-4.125,5.48-10.487C40.112,11.491,35.834,7,30.332,7Zm2.16,26.369h-.737l-.23.678c-.056.163-.2.6-1.194.6s-1.138-.433-1.193-.6l-.23-.678h-.832a1.135,1.135,0,0,1-1.14-1.228V29.155h6.7v2.986A1.136,1.136,0,0,1,32.492,33.369Zm3.751-11.347c-1.284,1.2-2.611,2.443-2.611,4.708v1.425h-6.7V26.73c0-2.259-1.3-3.5-2.565-4.7-1.45-1.381-2.821-2.686-2.821-5.785a8.082,8.082,0,0,1,2.526-5.69,8.933,8.933,0,0,1,12.51,0,8.082,8.082,0,0,1,2.526,5.69C39.113,19.337,37.719,20.642,36.244,22.022Z" transform="translate(3838.952 397.039)"/><path class="a" d="M43.611,23.311a2.082,2.082,0,0,1-.872-1.034,2.08,2.08,0,0,1,.287-1.322.6.6,0,0,0,0-.567l-.7-.945a.6.6,0,0,0-.432-.184.46.46,0,0,0-.109.013,2.638,2.638,0,0,1-.577.065,1.509,1.509,0,0,1-.77-.18,2.079,2.079,0,0,1-.732-1.138.592.592,0,0,0-.4-.4l-1.163-.176h-.028a.6.6,0,0,0-.476.263,2.082,2.082,0,0,1-1.034.872,1.124,1.124,0,0,1-.269.031,2.367,2.367,0,0,1-1.053-.318.594.594,0,0,0-.567,0l-.945.7a.592.592,0,0,0-.172.54,2.079,2.079,0,0,1-.115,1.347,2.084,2.084,0,0,1-1.137.732.593.593,0,0,0-.4.4l-.176,1.162a.6.6,0,0,0,.262.5,2.076,2.076,0,0,1,.87,1.034,2.079,2.079,0,0,1-.286,1.321.6.6,0,0,0,0,.567l.7.945a.6.6,0,0,0,.433.184.455.455,0,0,0,.108-.012,2.651,2.651,0,0,1,.577-.064,1.515,1.515,0,0,1,.77.179,2.083,2.083,0,0,1,.731,1.138.594.594,0,0,0,.4.4l1.162.175h.028a.6.6,0,0,0,.476-.263,2.082,2.082,0,0,1,1.034-.87,1.114,1.114,0,0,1,.269-.031,2.363,2.363,0,0,1,1.052.318.6.6,0,0,0,.567,0l.945-.7a.594.594,0,0,0,.172-.541,2.087,2.087,0,0,1,.115-1.348,2.081,2.081,0,0,1,1.138-.732.593.593,0,0,0,.4-.4l.176-1.162A.6.6,0,0,0,43.611,23.311ZM42.758,24.5a2.43,2.43,0,0,0-1.739,2.888L40.6,27.7a3.132,3.132,0,0,0-1.29-.314,2.111,2.111,0,0,0-.51.061,2.8,2.8,0,0,0-1.472,1.065l-.514-.077a2.8,2.8,0,0,0-1.094-1.452,2.459,2.459,0,0,0-1.285-.322,3.718,3.718,0,0,0-.508.036l-.31-.419a2.79,2.79,0,0,0,.253-1.8,2.792,2.792,0,0,0-1.065-1.473l.078-.514A2.8,2.8,0,0,0,34.335,21.4a2.8,2.8,0,0,0,.287-1.794l.418-.309a3.136,3.136,0,0,0,1.29.314,2.115,2.115,0,0,0,.51-.061,2.8,2.8,0,0,0,1.472-1.066l.514.078a2.79,2.79,0,0,0,1.093,1.451,2.451,2.451,0,0,0,1.286.324,3.727,3.727,0,0,0,.508-.036l.31.418a2.791,2.791,0,0,0-.254,1.8,2.8,2.8,0,0,0,1.066,1.474Z" transform="translate(3831.471 390.073)"/><path class="a" d="M46.425,28.855a2.366,2.366,0,1,0,.807,3.247A2.355,2.355,0,0,0,46.425,28.855Zm-.049,2.731a1.367,1.367,0,1,1-.467-1.876A1.36,1.36,0,0,1,46.376,31.586Z" transform="translate(3824.087 382.689)"/><path class="a" d="M10.382,33a.5.5,0,0,0-.5-.5H7.552a.5.5,0,1,0,0,1H9.883A.5.5,0,0,0,10.382,33Z" transform="translate(3847.956 380.032)"/><path class="a" d="M14.081,48.357,12.016,49.44a.5.5,0,1,0,.464.885l2.064-1.083a.5.5,0,1,0-.464-.885Z" transform="translate(3844.823 369.494)"/><path class="a" d="M12.017,14.387l2.063,1.084a.5.5,0,0,0,.465-.885L12.481,13.5a.5.5,0,0,0-.464.885Z" transform="translate(3844.823 392.741)"/><path class="a" d="M85.778,32.5H83.447a.5.5,0,1,0,0,1h2.331a.5.5,0,0,0,0-1Z" transform="translate(3797.337 380.032)"/><path class="a" d="M81.849,49.44l-2.064-1.083a.5.5,0,1,0-.464.885l2.064,1.083a.5.5,0,1,0,.464-.885Z" transform="translate(3799.934 369.494)"/><path class="a" d="M79.554,15.529a.5.5,0,0,0,.231-.057l2.064-1.084a.5.5,0,0,0-.465-.885l-2.063,1.084a.5.5,0,0,0,.233.942Z" transform="translate(3799.934 392.74)"/></g><g transform="translate(-111.382 1008.914)"><g transform="translate(3790.382 351.086)"><path class="a" d="M35.667,15.914a1.048,1.048,0,0,0,.521-.967l-.126-.69a1.044,1.044,0,0,0-.826-.723,1.131,1.131,0,0,1-.791-1.47,1.1,1.1,0,0,0-.128-1.1s-.005-.006-.255-.244-.255-.243-.255-.243a1.053,1.053,0,0,0-.629-.194.988.988,0,0,0-.48.115.9.9,0,0,1-.409.09,1.154,1.154,0,0,1-.5-.12A1.027,1.027,0,0,1,31.2,9.67a1.044,1.044,0,0,0-.758-.793l-.695-.094H29.7a1.056,1.056,0,0,0-.9.565,1.028,1.028,0,0,1-.755.51,1.267,1.267,0,0,1-.224.021.982.982,0,0,1-.663-.234,1.037,1.037,0,0,0-.714-.271.9.9,0,0,0-.366.073l-.617.334a1.045,1.045,0,0,0-.432,1.009.992.992,0,0,1-.155.651,12.662,12.662,0,1,0,8.622,8.724c.019-.023.034-.046.056-.068a1.069,1.069,0,0,1,.768-.353.525.525,0,0,1,.074,0,.769.769,0,0,0,.118.009,1.058,1.058,0,0,0,.871-.485l.307-.631a1.048,1.048,0,0,0-.245-1.07,1.13,1.13,0,0,1,.224-1.654Zm-16.489-3.79-.271.487A1.647,1.647,0,0,0,19,14.268l.76,1.068a1.343,1.343,0,0,1,.182.817l-.2,1.075a.955.955,0,0,1-.443.57l-1.336.617a1.169,1.169,0,0,0-.571,1.547l.564,1.229a1.82,1.82,0,0,1,.1.934l-.161.7a1.184,1.184,0,0,1-.485.632l-.987.524a.775.775,0,0,1-.644-.027l-.807-.519a1.681,1.681,0,0,0-1.658-.032l-.809.479a1,1,0,0,0-.218,1.6l.453.473a.943.943,0,0,1,.2.685l-.09.433a1.918,1.918,0,0,1-.477.827l-.409.366a10.554,10.554,0,0,0-.876.909,11.649,11.649,0,0,1,8.095-17.042ZM11.634,30.069l.145-.18a9.431,9.431,0,0,1,.848-.89l.408-.366a2.866,2.866,0,0,0,.788-1.367l.09-.433a1.915,1.915,0,0,0-.453-1.581l-.453-.473c-.012-.012-.018-.022-.021-.023a.1.1,0,0,1,.028-.021l.809-.479a.7.7,0,0,1,.608.012l.807.52a1.757,1.757,0,0,0,1.653.07l.987-.524a2.161,2.161,0,0,0,.99-1.291l.161-.7a2.777,2.777,0,0,0-.162-1.575L18.3,19.545a.17.17,0,0,1,.082-.222l1.336-.617a1.942,1.942,0,0,0,1.007-1.3l.2-1.075a2.308,2.308,0,0,0-.351-1.577l-.76-1.068a.665.665,0,0,1-.033-.591l.631-1.133c.3-.023.6-.038.9-.038a11.543,11.543,0,0,1,1.98.178.972.972,0,0,0-.405.366l-.307.631a1.047,1.047,0,0,0,.245,1.07,1.13,1.13,0,0,1-.223,1.654,1.049,1.049,0,0,0-.521.967l.126.69a1.044,1.044,0,0,0,.826.723,1.131,1.131,0,0,1,.79,1.469,1.1,1.1,0,0,0,.129,1.1s.005.006.254.244.256.243.256.243a1.054,1.054,0,0,0,.63.194.985.985,0,0,0,.479-.115.9.9,0,0,1,.408-.089,1.156,1.156,0,0,1,.5.12,1.026,1.026,0,0,1,.592.693,1.045,1.045,0,0,0,.758.793l.695.094h.046a1.055,1.055,0,0,0,.9-.565,1.027,1.027,0,0,1,.755-.509,1.271,1.271,0,0,1,.224-.021.982.982,0,0,1,.663.234,1.038,1.038,0,0,0,.714.27.9.9,0,0,0,.366-.073l.617-.334c.014-.009.027-.021.041-.031a11.71,11.71,0,0,1,.119,1.653c0,.229-.008.455-.021.68l-.26-.145a2.681,2.681,0,0,0-1.568-.263l-1.741.308a1.993,1.993,0,0,0-1.313.98l-.3.6a2.681,2.681,0,0,0-.194,1.578L28,29.255a.258.258,0,0,1-.158.278l-.891.3a3.135,3.135,0,0,1-1.081.115l-1.909-.212a3.037,3.037,0,0,1-1.017-.354l-.307-.191a1.231,1.231,0,0,0-1.629.3L19.651,31.3a1.169,1.169,0,0,0,.234,1.632l.371.278a.547.547,0,0,1,.167.5L20,35.161A11.663,11.663,0,0,1,11.634,30.069Zm9.678,5.168c-.1,0-.194,0-.292-.007l.361-1.242a1.53,1.53,0,0,0-.528-1.578l-.371-.278a.164.164,0,0,1-.064-.109.166.166,0,0,1,.031-.123l1.356-1.808a.241.241,0,0,1,.3-.056l.306.191a3.935,3.935,0,0,0,1.436.5l1.909.212a4.093,4.093,0,0,0,1.507-.16l.892-.3a1.251,1.251,0,0,0,.817-1.443l-.429-1.932a1.711,1.711,0,0,1,.112-.914l.3-.6a1.007,1.007,0,0,1,.594-.443l1.741-.308a1.7,1.7,0,0,1,.909.152l.634.352A11.674,11.674,0,0,1,21.312,35.238ZM35.178,15.043a2.123,2.123,0,0,0-.437,3.234c0,.005,0,.011,0,.018l-.219.451-.013.007a1.559,1.559,0,0,0-.194-.011,2.087,2.087,0,0,0-1.49.661,2.048,2.048,0,0,0-.576,1.707l-.007.018-.44.238-.018,0a2,2,0,0,0-1.341-.5,2.265,2.265,0,0,0-.4.037,2.049,2.049,0,0,0-1.468,1.042l-.017.011-.5-.067-.012-.013a2.047,2.047,0,0,0-1.138-1.4,2.143,2.143,0,0,0-.937-.219,1.913,1.913,0,0,0-.87.2h-.017l-.03,0L24.9,20.3l-.165-.158a.2.2,0,0,1,0-.046,2.123,2.123,0,0,0-1.543-2.88l-.013-.011-.09-.493.01-.017a2.123,2.123,0,0,0,.436-3.234l0-.018.219-.451.012-.007a1.56,1.56,0,0,0,.194.011,2.086,2.086,0,0,0,1.49-.661,2.05,2.05,0,0,0,.576-1.707l.007-.017.44-.239.017,0a2,2,0,0,0,1.341.5,2.264,2.264,0,0,0,.4-.037A2.05,2.05,0,0,0,29.691,9.8l.018-.011.5.067.011.013a2.049,2.049,0,0,0,1.139,1.4,2.14,2.14,0,0,0,.935.218,1.917,1.917,0,0,0,.872-.2h.017l.029,0,.165.158.165.158a.2.2,0,0,1,0,.045,2.123,2.123,0,0,0,1.543,2.881l.013.011.09.493Z" transform="translate(-8.656 -8.781)"/><path class="a" d="M63.517,20.121a3.311,3.311,0,1,0,2.288.919A3.3,3.3,0,0,0,63.517,20.121Zm1.67,4.909a2.311,2.311,0,0,1-3.268.073,2.312,2.312,0,1,1,3.268-.073Z" transform="translate(-43.038 -16.344)"/></g></g><g transform="translate(-163.388 989.05)"><path class="a" d="M44.57,12.1a.5.5,0,0,0,.369.164h0a.5.5,0,0,0,.369-.163l2.08-2.286a.5.5,0,1,0-.739-.672l-1.211,1.331,0-4.818a.5.5,0,0,0-.5-.5h0a.5.5,0,0,0-.5.5l0,4.816-1.208-1.33a.5.5,0,0,0-.74.672Z" transform="translate(3811.417 498.793)"/><path class="a" d="M70.751,67.488a.5.5,0,0,0-.476.522l.085,1.8-3.4-3.409a.5.5,0,1,0-.707.706l3.4,3.409-1.8-.087a.5.5,0,0,0-.048,1l3.087.149h.024a.5.5,0,0,0,.5-.523l-.146-3.087A.5.5,0,0,0,70.751,67.488Z" transform="translate(3795.583 458.045)"/><path class="a" d="M9.814,47.18,12.1,45.1a.5.5,0,0,0,0-.739l-2.286-2.08a.5.5,0,0,0-.672.739l1.331,1.212-4.818,0h0a.5.5,0,0,0,0,1l4.816,0-1.33,1.208a.5.5,0,0,0,.672.74Z" transform="translate(3836.232 474.118)"/><path class="a" d="M45.1,73.665a.5.5,0,0,0-.37-.164h0a.5.5,0,0,0-.369.163L42.283,75.95a.5.5,0,1,0,.739.672l1.212-1.332,0,4.819a.5.5,0,0,0,.5.5h0a.5.5,0,0,0,.5-.5l0-4.815,1.208,1.329a.5.5,0,0,0,.74-.672Z" transform="translate(3811.556 453.21)"/><path class="a" d="M19.7,18.833l1.794.086a.5.5,0,0,0,.048-1l-3.087-.148a.494.494,0,0,0-.377.146.5.5,0,0,0-.146.377l.146,3.087a.5.5,0,0,0,.5.476H18.6a.5.5,0,0,0,.476-.523l-.085-1.8,3.4,3.411a.5.5,0,0,0,.707-.706Z" transform="translate(3827.712 490.379)"/><path class="a" d="M80.11,44.446l-4.815,0,1.329-1.207a.5.5,0,0,0-.672-.74l-2.287,2.078a.5.5,0,0,0,0,.739l2.286,2.079a.5.5,0,1,0,.672-.739L75.29,45.44l4.819,0h0a.5.5,0,0,0,0-1Z" transform="translate(3790.649 473.977)"/><path class="a" d="M22.24,66.251l-3.408,3.4.086-1.794a.5.5,0,1,0-1-.047L17.773,70.9a.5.5,0,0,0,.5.523H18.3l3.087-.146a.5.5,0,1,0-.047-1l-1.8.085,3.41-3.4a.5.5,0,0,0-.707-.707Z" transform="translate(3827.818 458.143)"/><path class="a" d="M41.059,32a4.442,4.442,0,0,0-4.5,4.262A3.734,3.734,0,0,0,38,39.274c.5.477.766.75.766,1.257v2.627A1.334,1.334,0,0,0,40.1,44.49H41.98a1.333,1.333,0,0,0,1.332-1.331l0-2.628c0-.5.267-.777.779-1.254a3.716,3.716,0,0,0,1.461-3.014A4.443,4.443,0,0,0,41.059,32Zm.921,11.49H40.1a.338.338,0,0,1-.333-.333V41.992h2.552l0,1.166A.338.338,0,0,1,41.98,43.491Zm1.433-4.945a2.626,2.626,0,0,0-1.1,1.984v.463H39.763v-.463a2.636,2.636,0,0,0-1.077-1.982,2.782,2.782,0,0,1-1.124-2.286,3.505,3.505,0,0,1,6.994,0A2.766,2.766,0,0,1,43.413,38.546Z" transform="translate(3815.285 480.889)"/><path class="a" d="M66.751,23.248A.5.5,0,0,0,67.1,23.1l3.408-3.4-.086,1.794a.5.5,0,0,0,.475.523h.024a.5.5,0,0,0,.5-.476l.148-3.087a.5.5,0,0,0-.523-.523l-3.087.146a.5.5,0,1,0,.047,1l1.8-.085-3.409,3.4a.5.5,0,0,0,.353.853Z" transform="translate(3795.484 490.273)"/></g><g transform="translate(-192.975 1076.092)"><g transform="translate(3872.975 550.908)"><path class="a" d="M36.312,16H13.332A1.336,1.336,0,0,0,12,17.332V37.314a1.336,1.336,0,0,0,1.332,1.332h22.98a1.336,1.336,0,0,0,1.332-1.332V17.332A1.336,1.336,0,0,0,36.312,16Zm-22.98,1h22.98a.338.338,0,0,1,.333.333V20H13V17.332A.338.338,0,0,1,13.332,17Zm2.719,20.367-.038-.045c-.006-.076-.022-.3-.022-.625s.016-.551.022-.625l.038-.045a2.552,2.552,0,0,0,1.317-4.035v-.017l.774-1.065.02,0a3.059,3.059,0,0,0,.888.132,2.513,2.513,0,0,0,1.491-.463,2.766,2.766,0,0,0,1.05-2.164l.009-.016,1.253-.4.018.007a2.551,2.551,0,0,0,4.239,0l.018-.007,1.252.4.01.016a2.765,2.765,0,0,0,1.05,2.164,2.513,2.513,0,0,0,1.49.463,3.055,3.055,0,0,0,.889-.132l.02,0,.774,1.065v.016a2.552,2.552,0,0,0,1.317,4.036l.038.045c.006.076.022.3.022.624s-.016.551-.022.625l-.038.045a3.01,3.01,0,0,0-.6.281H29.506a4.641,4.641,0,1,0-9.036,0H16.648A2.979,2.979,0,0,0,16.051,37.366Zm5.295-.753a3.642,3.642,0,0,1,7.284,0,3.6,3.6,0,0,1-.155,1.035H21.5A3.6,3.6,0,0,1,21.346,36.613Zm14.965,1.035h-1.4a.837.837,0,0,0,.046-.19s.03-.278.03-.761-.03-.76-.03-.76a1.1,1.1,0,0,0-.709-.856,1.558,1.558,0,0,1-.818-2.517,1.042,1.042,0,0,0,.049-1.1l-.892-1.227a1.057,1.057,0,0,0-.78-.336.859.859,0,0,0-.279.044,2.019,2.019,0,0,1-.6.089,1.519,1.519,0,0,1-.9-.272,1.8,1.8,0,0,1-.638-1.374,1.047,1.047,0,0,0-.6-.917l-1.444-.466a.811.811,0,0,0-.2-.023,1.059,1.059,0,0,0-.832.409,1.8,1.8,0,0,1-1.322.734,1.8,1.8,0,0,1-1.322-.734,1.059,1.059,0,0,0-.832-.409.813.813,0,0,0-.2.023l-1.444.466a1.046,1.046,0,0,0-.6.917,1.8,1.8,0,0,1-.638,1.373,1.52,1.52,0,0,1-.9.272,2.023,2.023,0,0,1-.6-.089.859.859,0,0,0-.279-.044,1.056,1.056,0,0,0-.78.336L16.5,31.467a1.043,1.043,0,0,0,.049,1.1,1.558,1.558,0,0,1-.817,2.516,1.1,1.1,0,0,0-.709.856s-.03.278-.03.761.03.761.03.761a.821.821,0,0,0,.046.191H13.332A.338.338,0,0,1,13,37.315V21H36.645V37.314A.338.338,0,0,1,36.312,37.647Z" transform="translate(-12 -16)"/><circle class="a" cx="0.833" cy="0.833" r="0.833" transform="translate(22.313 1.665)"/><circle class="a" cx="0.833" cy="0.833" r="0.833" transform="translate(19.982 1.665)"/><circle class="a" cx="0.833" cy="0.833" r="0.833" transform="translate(17.651 1.665)"/></g></g><g transform="translate(-182.484 114.555)"><path class="b" d="M37.627,54.456a.688.688,0,0,1,.2.248.725.725,0,0,1,.068.32.467.467,0,1,0,.934,0,1.684,1.684,0,0,0-.159-.725,1.706,1.706,0,0,0-.811-.794,2.563,2.563,0,0,0-.717-.216v-.317a.5.5,0,1,0-1,0v.3a2.341,2.341,0,0,0-.516.128,1.772,1.772,0,0,0-.887.714,1.724,1.724,0,0,0-.263.913,1.548,1.548,0,0,0,.216.821,1.526,1.526,0,0,0,.47.477,3.313,3.313,0,0,0,.979.4v1.923a1.112,1.112,0,0,1-.469-.216.731.731,0,0,1-.263-.582.467.467,0,1,0-.933,0,1.678,1.678,0,0,0,.592,1.3,2.1,2.1,0,0,0,1.072.458v.368a.5.5,0,1,0,1,0v-.383a2.4,2.4,0,0,0,.939-.315,1.559,1.559,0,0,0,.55-.581,1.91,1.91,0,0,0-.007-1.707,1.614,1.614,0,0,0-.46-.521,3.067,3.067,0,0,0-1.007-.449l-.014,0V54.246A1.262,1.262,0,0,1,37.627,54.456Zm-.163,2.665a.835.835,0,0,1,.321.27.786.786,0,0,1,.114.452.825.825,0,0,1-.086.4.723.723,0,0,1-.409.322,1.688,1.688,0,0,1-.258.071V56.989A2.045,2.045,0,0,1,37.464,57.12Zm-1.633-1.5a.81.81,0,0,1-.316-.234.58.58,0,0,1-.1-.364.786.786,0,0,1,.219-.541.9.9,0,0,1,.329-.209,1.331,1.331,0,0,1,.184-.053v1.52A2.323,2.323,0,0,1,35.831,55.622Z" transform="translate(3835.657 283.956)"/><path class="b" d="M34.437,20.793,15.634,10.65a1.316,1.316,0,0,0-.627-.159,1.337,1.337,0,0,0-1.179.7L8.461,21.227a1.223,1.223,0,0,0-.1.258H6.83A1.341,1.341,0,0,0,5.5,22.825v11.3A1.34,1.34,0,0,0,6.83,35.467h17.7a4,4,0,0,0,6.243-5l4.208-7.864A1.347,1.347,0,0,0,34.437,20.793ZM6.83,34.463a.339.339,0,0,1-.333-.335v-11.3a.339.339,0,0,1,.333-.335H19.866a3,3,0,0,0,5.946,0h2.326a.339.339,0,0,1,.334.335v6.067a4.01,4.01,0,0,0-4.6,5.571H6.83ZM20.837,22.1a2,2,0,1,1,2,2.009A2.007,2.007,0,0,1,20.837,22.1ZM27.507,35.8a3.014,3.014,0,1,1,3-3.014A3.011,3.011,0,0,1,27.507,35.8ZM34.1,22.131,30.056,29.69a4,4,0,0,0-.585-.4V22.825a1.341,1.341,0,0,0-1.334-1.339h-2.36a3,3,0,0,0-5.879,0H9.459l5.25-9.814a.337.337,0,0,1,.3-.176.319.319,0,0,1,.154.039l18.8,10.143A.341.341,0,0,1,34.1,22.131Z" transform="translate(3854.989 311.954)"/></g><g transform="translate(-176.008 163.961)"><path class="b" d="M30.332,7c-5.5,0-9.78,4.491-9.78,9.244,0,6.362,5.386,6.377,5.386,10.487v5.41a2.133,2.133,0,0,0,2.139,2.227h.116a2.008,2.008,0,0,0,2.139,1.274,2.008,2.008,0,0,0,2.139-1.273h.021a2.133,2.133,0,0,0,2.139-2.227V26.73c0-4.11,5.48-4.125,5.48-10.487C40.112,11.491,35.834,7,30.332,7Zm2.16,26.369h-.737l-.23.678c-.056.163-.2.6-1.194.6s-1.138-.433-1.193-.6l-.23-.678h-.832a1.135,1.135,0,0,1-1.14-1.228V29.155h6.7v2.986A1.136,1.136,0,0,1,32.492,33.369Zm3.751-11.347c-1.284,1.2-2.611,2.443-2.611,4.708v1.425h-6.7V26.73c0-2.259-1.3-3.5-2.565-4.7-1.45-1.381-2.821-2.686-2.821-5.785a8.082,8.082,0,0,1,2.526-5.69,8.933,8.933,0,0,1,12.51,0,8.082,8.082,0,0,1,2.526,5.69C39.113,19.337,37.719,20.642,36.244,22.022Z" transform="translate(3838.952 397.039)"/><path class="b" d="M43.611,23.311a2.082,2.082,0,0,1-.872-1.034,2.08,2.08,0,0,1,.287-1.322.6.6,0,0,0,0-.567l-.7-.945a.6.6,0,0,0-.432-.184.46.46,0,0,0-.109.013,2.638,2.638,0,0,1-.577.065,1.509,1.509,0,0,1-.77-.18,2.079,2.079,0,0,1-.732-1.138.592.592,0,0,0-.4-.4l-1.163-.176h-.028a.6.6,0,0,0-.476.263,2.082,2.082,0,0,1-1.034.872,1.124,1.124,0,0,1-.269.031,2.367,2.367,0,0,1-1.053-.318.594.594,0,0,0-.567,0l-.945.7a.592.592,0,0,0-.172.54,2.079,2.079,0,0,1-.115,1.347,2.084,2.084,0,0,1-1.137.732.593.593,0,0,0-.4.4l-.176,1.162a.6.6,0,0,0,.262.5,2.076,2.076,0,0,1,.87,1.034,2.079,2.079,0,0,1-.286,1.321.6.6,0,0,0,0,.567l.7.945a.6.6,0,0,0,.433.184.455.455,0,0,0,.108-.012,2.651,2.651,0,0,1,.577-.064,1.515,1.515,0,0,1,.77.179,2.083,2.083,0,0,1,.731,1.138.594.594,0,0,0,.4.4l1.162.175h.028a.6.6,0,0,0,.476-.263,2.082,2.082,0,0,1,1.034-.87,1.114,1.114,0,0,1,.269-.031,2.363,2.363,0,0,1,1.052.318.6.6,0,0,0,.567,0l.945-.7a.594.594,0,0,0,.172-.541,2.087,2.087,0,0,1,.115-1.348,2.081,2.081,0,0,1,1.138-.732.593.593,0,0,0,.4-.4l.176-1.162A.6.6,0,0,0,43.611,23.311ZM42.758,24.5a2.43,2.43,0,0,0-1.739,2.888L40.6,27.7a3.132,3.132,0,0,0-1.29-.314,2.111,2.111,0,0,0-.51.061,2.8,2.8,0,0,0-1.472,1.065l-.514-.077a2.8,2.8,0,0,0-1.094-1.452,2.459,2.459,0,0,0-1.285-.322,3.718,3.718,0,0,0-.508.036l-.31-.419a2.79,2.79,0,0,0,.253-1.8,2.792,2.792,0,0,0-1.065-1.473l.078-.514A2.8,2.8,0,0,0,34.335,21.4a2.8,2.8,0,0,0,.287-1.794l.418-.309a3.136,3.136,0,0,0,1.29.314,2.115,2.115,0,0,0,.51-.061,2.8,2.8,0,0,0,1.472-1.066l.514.078a2.79,2.79,0,0,0,1.093,1.451,2.451,2.451,0,0,0,1.286.324,3.727,3.727,0,0,0,.508-.036l.31.418a2.791,2.791,0,0,0-.254,1.8,2.8,2.8,0,0,0,1.066,1.474Z" transform="translate(3831.471 390.073)"/><path class="b" d="M46.425,28.855a2.366,2.366,0,1,0,.807,3.247A2.355,2.355,0,0,0,46.425,28.855Zm-.049,2.731a1.367,1.367,0,1,1-.467-1.876A1.36,1.36,0,0,1,46.376,31.586Z" transform="translate(3824.087 382.689)"/><path class="b" d="M10.382,33a.5.5,0,0,0-.5-.5H7.552a.5.5,0,1,0,0,1H9.883A.5.5,0,0,0,10.382,33Z" transform="translate(3847.956 380.032)"/><path class="b" d="M14.081,48.357,12.016,49.44a.5.5,0,1,0,.464.885l2.064-1.083a.5.5,0,1,0-.464-.885Z" transform="translate(3844.823 369.494)"/><path class="b" d="M12.017,14.387l2.063,1.084a.5.5,0,0,0,.465-.885L12.481,13.5a.5.5,0,0,0-.464.885Z" transform="translate(3844.823 392.741)"/><path class="b" d="M85.778,32.5H83.447a.5.5,0,1,0,0,1h2.331a.5.5,0,0,0,0-1Z" transform="translate(3797.337 380.032)"/><path class="b" d="M81.849,49.44l-2.064-1.083a.5.5,0,1,0-.464.885l2.064,1.083a.5.5,0,1,0,.464-.885Z" transform="translate(3799.934 369.494)"/><path class="b" d="M79.554,15.529a.5.5,0,0,0,.231-.057l2.064-1.084a.5.5,0,0,0-.465-.885l-2.063,1.084a.5.5,0,0,0,.233.942Z" transform="translate(3799.934 392.74)"/></g><g transform="translate(-111.382 350.914)"><g transform="translate(3790.382 351.086)"><path class="b" d="M35.667,15.914a1.048,1.048,0,0,0,.521-.967l-.126-.69a1.044,1.044,0,0,0-.826-.723,1.131,1.131,0,0,1-.791-1.47,1.1,1.1,0,0,0-.128-1.1s-.005-.006-.255-.244-.255-.243-.255-.243a1.053,1.053,0,0,0-.629-.194.988.988,0,0,0-.48.115.9.9,0,0,1-.409.09,1.154,1.154,0,0,1-.5-.12A1.027,1.027,0,0,1,31.2,9.67a1.044,1.044,0,0,0-.758-.793l-.695-.094H29.7a1.056,1.056,0,0,0-.9.565,1.028,1.028,0,0,1-.755.51,1.267,1.267,0,0,1-.224.021.982.982,0,0,1-.663-.234,1.037,1.037,0,0,0-.714-.271.9.9,0,0,0-.366.073l-.617.334a1.045,1.045,0,0,0-.432,1.009.992.992,0,0,1-.155.651,12.662,12.662,0,1,0,8.622,8.724c.019-.023.034-.046.056-.068a1.069,1.069,0,0,1,.768-.353.525.525,0,0,1,.074,0,.769.769,0,0,0,.118.009,1.058,1.058,0,0,0,.871-.485l.307-.631a1.048,1.048,0,0,0-.245-1.07,1.13,1.13,0,0,1,.224-1.654Zm-16.489-3.79-.271.487A1.647,1.647,0,0,0,19,14.268l.76,1.068a1.343,1.343,0,0,1,.182.817l-.2,1.075a.955.955,0,0,1-.443.57l-1.336.617a1.169,1.169,0,0,0-.571,1.547l.564,1.229a1.82,1.82,0,0,1,.1.934l-.161.7a1.184,1.184,0,0,1-.485.632l-.987.524a.775.775,0,0,1-.644-.027l-.807-.519a1.681,1.681,0,0,0-1.658-.032l-.809.479a1,1,0,0,0-.218,1.6l.453.473a.943.943,0,0,1,.2.685l-.09.433a1.918,1.918,0,0,1-.477.827l-.409.366a10.554,10.554,0,0,0-.876.909,11.649,11.649,0,0,1,8.095-17.042ZM11.634,30.069l.145-.18a9.431,9.431,0,0,1,.848-.89l.408-.366a2.866,2.866,0,0,0,.788-1.367l.09-.433a1.915,1.915,0,0,0-.453-1.581l-.453-.473c-.012-.012-.018-.022-.021-.023a.1.1,0,0,1,.028-.021l.809-.479a.7.7,0,0,1,.608.012l.807.52a1.757,1.757,0,0,0,1.653.07l.987-.524a2.161,2.161,0,0,0,.99-1.291l.161-.7a2.777,2.777,0,0,0-.162-1.575L18.3,19.545a.17.17,0,0,1,.082-.222l1.336-.617a1.942,1.942,0,0,0,1.007-1.3l.2-1.075a2.308,2.308,0,0,0-.351-1.577l-.76-1.068a.665.665,0,0,1-.033-.591l.631-1.133c.3-.023.6-.038.9-.038a11.543,11.543,0,0,1,1.98.178.972.972,0,0,0-.405.366l-.307.631a1.047,1.047,0,0,0,.245,1.07,1.13,1.13,0,0,1-.223,1.654,1.049,1.049,0,0,0-.521.967l.126.69a1.044,1.044,0,0,0,.826.723,1.131,1.131,0,0,1,.79,1.469,1.1,1.1,0,0,0,.129,1.1s.005.006.254.244.256.243.256.243a1.054,1.054,0,0,0,.63.194.985.985,0,0,0,.479-.115.9.9,0,0,1,.408-.089,1.156,1.156,0,0,1,.5.12,1.026,1.026,0,0,1,.592.693,1.045,1.045,0,0,0,.758.793l.695.094h.046a1.055,1.055,0,0,0,.9-.565,1.027,1.027,0,0,1,.755-.509,1.271,1.271,0,0,1,.224-.021.982.982,0,0,1,.663.234,1.038,1.038,0,0,0,.714.27.9.9,0,0,0,.366-.073l.617-.334c.014-.009.027-.021.041-.031a11.71,11.71,0,0,1,.119,1.653c0,.229-.008.455-.021.68l-.26-.145a2.681,2.681,0,0,0-1.568-.263l-1.741.308a1.993,1.993,0,0,0-1.313.98l-.3.6a2.681,2.681,0,0,0-.194,1.578L28,29.255a.258.258,0,0,1-.158.278l-.891.3a3.135,3.135,0,0,1-1.081.115l-1.909-.212a3.037,3.037,0,0,1-1.017-.354l-.307-.191a1.231,1.231,0,0,0-1.629.3L19.651,31.3a1.169,1.169,0,0,0,.234,1.632l.371.278a.547.547,0,0,1,.167.5L20,35.161A11.663,11.663,0,0,1,11.634,30.069Zm9.678,5.168c-.1,0-.194,0-.292-.007l.361-1.242a1.53,1.53,0,0,0-.528-1.578l-.371-.278a.164.164,0,0,1-.064-.109.166.166,0,0,1,.031-.123l1.356-1.808a.241.241,0,0,1,.3-.056l.306.191a3.935,3.935,0,0,0,1.436.5l1.909.212a4.093,4.093,0,0,0,1.507-.16l.892-.3a1.251,1.251,0,0,0,.817-1.443l-.429-1.932a1.711,1.711,0,0,1,.112-.914l.3-.6a1.007,1.007,0,0,1,.594-.443l1.741-.308a1.7,1.7,0,0,1,.909.152l.634.352A11.674,11.674,0,0,1,21.312,35.238ZM35.178,15.043a2.123,2.123,0,0,0-.437,3.234c0,.005,0,.011,0,.018l-.219.451-.013.007a1.559,1.559,0,0,0-.194-.011,2.087,2.087,0,0,0-1.49.661,2.048,2.048,0,0,0-.576,1.707l-.007.018-.44.238-.018,0a2,2,0,0,0-1.341-.5,2.265,2.265,0,0,0-.4.037,2.049,2.049,0,0,0-1.468,1.042l-.017.011-.5-.067-.012-.013a2.047,2.047,0,0,0-1.138-1.4,2.143,2.143,0,0,0-.937-.219,1.913,1.913,0,0,0-.87.2h-.017l-.03,0L24.9,20.3l-.165-.158a.2.2,0,0,1,0-.046,2.123,2.123,0,0,0-1.543-2.88l-.013-.011-.09-.493.01-.017a2.123,2.123,0,0,0,.436-3.234l0-.018.219-.451.012-.007a1.56,1.56,0,0,0,.194.011,2.086,2.086,0,0,0,1.49-.661,2.05,2.05,0,0,0,.576-1.707l.007-.017.44-.239.017,0a2,2,0,0,0,1.341.5,2.264,2.264,0,0,0,.4-.037A2.05,2.05,0,0,0,29.691,9.8l.018-.011.5.067.011.013a2.049,2.049,0,0,0,1.139,1.4,2.14,2.14,0,0,0,.935.218,1.917,1.917,0,0,0,.872-.2h.017l.029,0,.165.158.165.158a.2.2,0,0,1,0,.045,2.123,2.123,0,0,0,1.543,2.881l.013.011.09.493Z" transform="translate(-8.656 -8.781)"/><path class="b" d="M63.517,20.121a3.311,3.311,0,1,0,2.288.919A3.3,3.3,0,0,0,63.517,20.121Zm1.67,4.909a2.311,2.311,0,0,1-3.268.073,2.312,2.312,0,1,1,3.268-.073Z" transform="translate(-43.038 -16.344)"/></g></g><g transform="translate(-163.388 330.05)"><path class="b" d="M44.57,12.1a.5.5,0,0,0,.369.164h0a.5.5,0,0,0,.369-.163l2.08-2.286a.5.5,0,1,0-.739-.672l-1.211,1.331,0-4.818a.5.5,0,0,0-.5-.5h0a.5.5,0,0,0-.5.5l0,4.816-1.208-1.33a.5.5,0,0,0-.74.672Z" transform="translate(3811.417 498.793)"/><path class="b" d="M70.751,67.488a.5.5,0,0,0-.476.522l.085,1.8-3.4-3.409a.5.5,0,1,0-.707.706l3.4,3.409-1.8-.087a.5.5,0,0,0-.048,1l3.087.149h.024a.5.5,0,0,0,.5-.523l-.146-3.087A.5.5,0,0,0,70.751,67.488Z" transform="translate(3795.583 458.045)"/><path class="b" d="M9.814,47.18,12.1,45.1a.5.5,0,0,0,0-.739l-2.286-2.08a.5.5,0,0,0-.672.739l1.331,1.212-4.818,0h0a.5.5,0,0,0,0,1l4.816,0-1.33,1.208a.5.5,0,0,0,.672.74Z" transform="translate(3836.232 474.118)"/><path class="b" d="M45.1,73.665a.5.5,0,0,0-.37-.164h0a.5.5,0,0,0-.369.163L42.283,75.95a.5.5,0,1,0,.739.672l1.212-1.332,0,4.819a.5.5,0,0,0,.5.5h0a.5.5,0,0,0,.5-.5l0-4.815,1.208,1.329a.5.5,0,0,0,.74-.672Z" transform="translate(3811.556 453.21)"/><path class="b" d="M19.7,18.833l1.794.086a.5.5,0,0,0,.048-1l-3.087-.148a.494.494,0,0,0-.377.146.5.5,0,0,0-.146.377l.146,3.087a.5.5,0,0,0,.5.476H18.6a.5.5,0,0,0,.476-.523l-.085-1.8,3.4,3.411a.5.5,0,0,0,.707-.706Z" transform="translate(3827.712 490.379)"/><path class="b" d="M80.11,44.446l-4.815,0,1.329-1.207a.5.5,0,0,0-.672-.74l-2.287,2.078a.5.5,0,0,0,0,.739l2.286,2.079a.5.5,0,1,0,.672-.739L75.29,45.44l4.819,0h0a.5.5,0,0,0,0-1Z" transform="translate(3790.649 473.977)"/><path class="b" d="M22.24,66.251l-3.408,3.4.086-1.794a.5.5,0,1,0-1-.047L17.773,70.9a.5.5,0,0,0,.5.523H18.3l3.087-.146a.5.5,0,1,0-.047-1l-1.8.085,3.41-3.4a.5.5,0,0,0-.707-.707Z" transform="translate(3827.818 458.143)"/><path class="b" d="M41.059,32a4.442,4.442,0,0,0-4.5,4.262A3.734,3.734,0,0,0,38,39.274c.5.477.766.75.766,1.257v2.627A1.334,1.334,0,0,0,40.1,44.49H41.98a1.333,1.333,0,0,0,1.332-1.331l0-2.628c0-.5.267-.777.779-1.254a3.716,3.716,0,0,0,1.461-3.014A4.443,4.443,0,0,0,41.059,32Zm.921,11.49H40.1a.338.338,0,0,1-.333-.333V41.992h2.552l0,1.166A.338.338,0,0,1,41.98,43.491Zm1.433-4.945a2.626,2.626,0,0,0-1.1,1.984v.463H39.763v-.463a2.636,2.636,0,0,0-1.077-1.982,2.782,2.782,0,0,1-1.124-2.286,3.505,3.505,0,0,1,6.994,0A2.766,2.766,0,0,1,43.413,38.546Z" transform="translate(3815.285 480.889)"/><path class="b" d="M66.751,23.248A.5.5,0,0,0,67.1,23.1l3.408-3.4-.086,1.794a.5.5,0,0,0,.475.523h.024a.5.5,0,0,0,.5-.476l.148-3.087a.5.5,0,0,0-.523-.523l-3.087.146a.5.5,0,1,0,.047,1l1.8-.085-3.409,3.4a.5.5,0,0,0,.353.853Z" transform="translate(3795.484 490.273)"/></g><g transform="translate(-192.975 417.092)"><g transform="translate(3872.975 550.908)"><path class="b" d="M36.312,16H13.332A1.336,1.336,0,0,0,12,17.332V37.314a1.336,1.336,0,0,0,1.332,1.332h22.98a1.336,1.336,0,0,0,1.332-1.332V17.332A1.336,1.336,0,0,0,36.312,16Zm-22.98,1h22.98a.338.338,0,0,1,.333.333V20H13V17.332A.338.338,0,0,1,13.332,17Zm2.719,20.367-.038-.045c-.006-.076-.022-.3-.022-.625s.016-.551.022-.625l.038-.045a2.552,2.552,0,0,0,1.317-4.035v-.017l.774-1.065.02,0a3.059,3.059,0,0,0,.888.132,2.513,2.513,0,0,0,1.491-.463,2.766,2.766,0,0,0,1.05-2.164l.009-.016,1.253-.4.018.007a2.551,2.551,0,0,0,4.239,0l.018-.007,1.252.4.01.016a2.765,2.765,0,0,0,1.05,2.164,2.513,2.513,0,0,0,1.49.463,3.055,3.055,0,0,0,.889-.132l.02,0,.774,1.065v.016a2.552,2.552,0,0,0,1.317,4.036l.038.045c.006.076.022.3.022.624s-.016.551-.022.625l-.038.045a3.01,3.01,0,0,0-.6.281H29.506a4.641,4.641,0,1,0-9.036,0H16.648A2.979,2.979,0,0,0,16.051,37.366Zm5.295-.753a3.642,3.642,0,0,1,7.284,0,3.6,3.6,0,0,1-.155,1.035H21.5A3.6,3.6,0,0,1,21.346,36.613Zm14.965,1.035h-1.4a.837.837,0,0,0,.046-.19s.03-.278.03-.761-.03-.76-.03-.76a1.1,1.1,0,0,0-.709-.856,1.558,1.558,0,0,1-.818-2.517,1.042,1.042,0,0,0,.049-1.1l-.892-1.227a1.057,1.057,0,0,0-.78-.336.859.859,0,0,0-.279.044,2.019,2.019,0,0,1-.6.089,1.519,1.519,0,0,1-.9-.272,1.8,1.8,0,0,1-.638-1.374,1.047,1.047,0,0,0-.6-.917l-1.444-.466a.811.811,0,0,0-.2-.023,1.059,1.059,0,0,0-.832.409,1.8,1.8,0,0,1-1.322.734,1.8,1.8,0,0,1-1.322-.734,1.059,1.059,0,0,0-.832-.409.813.813,0,0,0-.2.023l-1.444.466a1.046,1.046,0,0,0-.6.917,1.8,1.8,0,0,1-.638,1.373,1.52,1.52,0,0,1-.9.272,2.023,2.023,0,0,1-.6-.089.859.859,0,0,0-.279-.044,1.056,1.056,0,0,0-.78.336L16.5,31.467a1.043,1.043,0,0,0,.049,1.1,1.558,1.558,0,0,1-.817,2.516,1.1,1.1,0,0,0-.709.856s-.03.278-.03.761.03.761.03.761a.821.821,0,0,0,.046.191H13.332A.338.338,0,0,1,13,37.315V21H36.645V37.314A.338.338,0,0,1,36.312,37.647Z" transform="translate(-12 -16)"/><circle class="b" cx="0.833" cy="0.833" r="0.833" transform="translate(22.313 1.665)"/><circle class="b" cx="0.833" cy="0.833" r="0.833" transform="translate(19.982 1.665)"/><circle class="b" cx="0.833" cy="0.833" r="0.833" transform="translate(17.651 1.665)"/></g></g><g transform="translate(-180.484 1432.555)"><path class="c" d="M37.627,54.456a.688.688,0,0,1,.2.248.725.725,0,0,1,.068.32.467.467,0,1,0,.934,0,1.684,1.684,0,0,0-.159-.725,1.706,1.706,0,0,0-.811-.794,2.563,2.563,0,0,0-.717-.216v-.317a.5.5,0,1,0-1,0v.3a2.341,2.341,0,0,0-.516.128,1.772,1.772,0,0,0-.887.714,1.724,1.724,0,0,0-.263.913,1.548,1.548,0,0,0,.216.821,1.526,1.526,0,0,0,.47.477,3.313,3.313,0,0,0,.979.4v1.923a1.112,1.112,0,0,1-.469-.216.731.731,0,0,1-.263-.582.467.467,0,1,0-.933,0,1.678,1.678,0,0,0,.592,1.3,2.1,2.1,0,0,0,1.072.458v.368a.5.5,0,1,0,1,0v-.383a2.4,2.4,0,0,0,.939-.315,1.559,1.559,0,0,0,.55-.581,1.91,1.91,0,0,0-.007-1.707,1.614,1.614,0,0,0-.46-.521,3.067,3.067,0,0,0-1.007-.449l-.014,0V54.246A1.262,1.262,0,0,1,37.627,54.456Zm-.163,2.665a.835.835,0,0,1,.321.27.786.786,0,0,1,.114.452.825.825,0,0,1-.086.4.723.723,0,0,1-.409.322,1.688,1.688,0,0,1-.258.071V56.989A2.045,2.045,0,0,1,37.464,57.12Zm-1.633-1.5a.81.81,0,0,1-.316-.234.58.58,0,0,1-.1-.364.786.786,0,0,1,.219-.541.9.9,0,0,1,.329-.209,1.331,1.331,0,0,1,.184-.053v1.52A2.323,2.323,0,0,1,35.831,55.622Z" transform="translate(3835.657 283.956)"/><path class="c" d="M34.437,20.793,15.634,10.65a1.316,1.316,0,0,0-.627-.159,1.337,1.337,0,0,0-1.179.7L8.461,21.227a1.223,1.223,0,0,0-.1.258H6.83A1.341,1.341,0,0,0,5.5,22.825v11.3A1.34,1.34,0,0,0,6.83,35.467h17.7a4,4,0,0,0,6.243-5l4.208-7.864A1.347,1.347,0,0,0,34.437,20.793ZM6.83,34.463a.339.339,0,0,1-.333-.335v-11.3a.339.339,0,0,1,.333-.335H19.866a3,3,0,0,0,5.946,0h2.326a.339.339,0,0,1,.334.335v6.067a4.01,4.01,0,0,0-4.6,5.571H6.83ZM20.837,22.1a2,2,0,1,1,2,2.009A2.007,2.007,0,0,1,20.837,22.1ZM27.507,35.8a3.014,3.014,0,1,1,3-3.014A3.011,3.011,0,0,1,27.507,35.8ZM34.1,22.131,30.056,29.69a4,4,0,0,0-.585-.4V22.825a1.341,1.341,0,0,0-1.334-1.339h-2.36a3,3,0,0,0-5.879,0H9.459l5.25-9.814a.337.337,0,0,1,.3-.176.319.319,0,0,1,.154.039l18.8,10.143A.341.341,0,0,1,34.1,22.131Z" transform="translate(3854.989 311.954)"/></g><g transform="translate(-174.008 1481.961)"><path class="c" d="M30.332,7c-5.5,0-9.78,4.491-9.78,9.244,0,6.362,5.386,6.377,5.386,10.487v5.41a2.133,2.133,0,0,0,2.139,2.227h.116a2.008,2.008,0,0,0,2.139,1.274,2.008,2.008,0,0,0,2.139-1.273h.021a2.133,2.133,0,0,0,2.139-2.227V26.73c0-4.11,5.48-4.125,5.48-10.487C40.112,11.491,35.834,7,30.332,7Zm2.16,26.369h-.737l-.23.678c-.056.163-.2.6-1.194.6s-1.138-.433-1.193-.6l-.23-.678h-.832a1.135,1.135,0,0,1-1.14-1.228V29.155h6.7v2.986A1.136,1.136,0,0,1,32.492,33.369Zm3.751-11.347c-1.284,1.2-2.611,2.443-2.611,4.708v1.425h-6.7V26.73c0-2.259-1.3-3.5-2.565-4.7-1.45-1.381-2.821-2.686-2.821-5.785a8.082,8.082,0,0,1,2.526-5.69,8.933,8.933,0,0,1,12.51,0,8.082,8.082,0,0,1,2.526,5.69C39.113,19.337,37.719,20.642,36.244,22.022Z" transform="translate(3838.952 397.039)"/><path class="c" d="M43.611,23.311a2.082,2.082,0,0,1-.872-1.034,2.08,2.08,0,0,1,.287-1.322.6.6,0,0,0,0-.567l-.7-.945a.6.6,0,0,0-.432-.184.46.46,0,0,0-.109.013,2.638,2.638,0,0,1-.577.065,1.509,1.509,0,0,1-.77-.18,2.079,2.079,0,0,1-.732-1.138.592.592,0,0,0-.4-.4l-1.163-.176h-.028a.6.6,0,0,0-.476.263,2.082,2.082,0,0,1-1.034.872,1.124,1.124,0,0,1-.269.031,2.367,2.367,0,0,1-1.053-.318.594.594,0,0,0-.567,0l-.945.7a.592.592,0,0,0-.172.54,2.079,2.079,0,0,1-.115,1.347,2.084,2.084,0,0,1-1.137.732.593.593,0,0,0-.4.4l-.176,1.162a.6.6,0,0,0,.262.5,2.076,2.076,0,0,1,.87,1.034,2.079,2.079,0,0,1-.286,1.321.6.6,0,0,0,0,.567l.7.945a.6.6,0,0,0,.433.184.455.455,0,0,0,.108-.012,2.651,2.651,0,0,1,.577-.064,1.515,1.515,0,0,1,.77.179,2.083,2.083,0,0,1,.731,1.138.594.594,0,0,0,.4.4l1.162.175h.028a.6.6,0,0,0,.476-.263,2.082,2.082,0,0,1,1.034-.87,1.114,1.114,0,0,1,.269-.031,2.363,2.363,0,0,1,1.052.318.6.6,0,0,0,.567,0l.945-.7a.594.594,0,0,0,.172-.541,2.087,2.087,0,0,1,.115-1.348,2.081,2.081,0,0,1,1.138-.732.593.593,0,0,0,.4-.4l.176-1.162A.6.6,0,0,0,43.611,23.311ZM42.758,24.5a2.43,2.43,0,0,0-1.739,2.888L40.6,27.7a3.132,3.132,0,0,0-1.29-.314,2.111,2.111,0,0,0-.51.061,2.8,2.8,0,0,0-1.472,1.065l-.514-.077a2.8,2.8,0,0,0-1.094-1.452,2.459,2.459,0,0,0-1.285-.322,3.718,3.718,0,0,0-.508.036l-.31-.419a2.79,2.79,0,0,0,.253-1.8,2.792,2.792,0,0,0-1.065-1.473l.078-.514A2.8,2.8,0,0,0,34.335,21.4a2.8,2.8,0,0,0,.287-1.794l.418-.309a3.136,3.136,0,0,0,1.29.314,2.115,2.115,0,0,0,.51-.061,2.8,2.8,0,0,0,1.472-1.066l.514.078a2.79,2.79,0,0,0,1.093,1.451,2.451,2.451,0,0,0,1.286.324,3.727,3.727,0,0,0,.508-.036l.31.418a2.791,2.791,0,0,0-.254,1.8,2.8,2.8,0,0,0,1.066,1.474Z" transform="translate(3831.471 390.073)"/><path class="c" d="M46.425,28.855a2.366,2.366,0,1,0,.807,3.247A2.355,2.355,0,0,0,46.425,28.855Zm-.049,2.731a1.367,1.367,0,1,1-.467-1.876A1.36,1.36,0,0,1,46.376,31.586Z" transform="translate(3824.087 382.689)"/><path class="c" d="M10.382,33a.5.5,0,0,0-.5-.5H7.552a.5.5,0,1,0,0,1H9.883A.5.5,0,0,0,10.382,33Z" transform="translate(3847.956 380.032)"/><path class="c" d="M14.081,48.357,12.016,49.44a.5.5,0,1,0,.464.885l2.064-1.083a.5.5,0,1,0-.464-.885Z" transform="translate(3844.823 369.494)"/><path class="c" d="M12.017,14.387l2.063,1.084a.5.5,0,0,0,.465-.885L12.481,13.5a.5.5,0,0,0-.464.885Z" transform="translate(3844.823 392.741)"/><path class="c" d="M85.778,32.5H83.447a.5.5,0,1,0,0,1h2.331a.5.5,0,0,0,0-1Z" transform="translate(3797.337 380.032)"/><path class="c" d="M81.849,49.44l-2.064-1.083a.5.5,0,1,0-.464.885l2.064,1.083a.5.5,0,1,0,.464-.885Z" transform="translate(3799.934 369.494)"/><path class="c" d="M79.554,15.529a.5.5,0,0,0,.231-.057l2.064-1.084a.5.5,0,0,0-.465-.885l-2.063,1.084a.5.5,0,0,0,.233.942Z" transform="translate(3799.934 392.74)"/></g><g transform="translate(-109.382 1667.914)"><g transform="translate(3790.382 351.086)"><path class="c" d="M35.667,15.914a1.048,1.048,0,0,0,.521-.967l-.126-.69a1.044,1.044,0,0,0-.826-.723,1.131,1.131,0,0,1-.791-1.47,1.1,1.1,0,0,0-.128-1.1s-.005-.006-.255-.244-.255-.243-.255-.243a1.053,1.053,0,0,0-.629-.194.988.988,0,0,0-.48.115.9.9,0,0,1-.409.09,1.154,1.154,0,0,1-.5-.12A1.027,1.027,0,0,1,31.2,9.67a1.044,1.044,0,0,0-.758-.793l-.695-.094H29.7a1.056,1.056,0,0,0-.9.565,1.028,1.028,0,0,1-.755.51,1.267,1.267,0,0,1-.224.021.982.982,0,0,1-.663-.234,1.037,1.037,0,0,0-.714-.271.9.9,0,0,0-.366.073l-.617.334a1.045,1.045,0,0,0-.432,1.009.992.992,0,0,1-.155.651,12.662,12.662,0,1,0,8.622,8.724c.019-.023.034-.046.056-.068a1.069,1.069,0,0,1,.768-.353.525.525,0,0,1,.074,0,.769.769,0,0,0,.118.009,1.058,1.058,0,0,0,.871-.485l.307-.631a1.048,1.048,0,0,0-.245-1.07,1.13,1.13,0,0,1,.224-1.654Zm-16.489-3.79-.271.487A1.647,1.647,0,0,0,19,14.268l.76,1.068a1.343,1.343,0,0,1,.182.817l-.2,1.075a.955.955,0,0,1-.443.57l-1.336.617a1.169,1.169,0,0,0-.571,1.547l.564,1.229a1.82,1.82,0,0,1,.1.934l-.161.7a1.184,1.184,0,0,1-.485.632l-.987.524a.775.775,0,0,1-.644-.027l-.807-.519a1.681,1.681,0,0,0-1.658-.032l-.809.479a1,1,0,0,0-.218,1.6l.453.473a.943.943,0,0,1,.2.685l-.09.433a1.918,1.918,0,0,1-.477.827l-.409.366a10.554,10.554,0,0,0-.876.909,11.649,11.649,0,0,1,8.095-17.042ZM11.634,30.069l.145-.18a9.431,9.431,0,0,1,.848-.89l.408-.366a2.866,2.866,0,0,0,.788-1.367l.09-.433a1.915,1.915,0,0,0-.453-1.581l-.453-.473c-.012-.012-.018-.022-.021-.023a.1.1,0,0,1,.028-.021l.809-.479a.7.7,0,0,1,.608.012l.807.52a1.757,1.757,0,0,0,1.653.07l.987-.524a2.161,2.161,0,0,0,.99-1.291l.161-.7a2.777,2.777,0,0,0-.162-1.575L18.3,19.545a.17.17,0,0,1,.082-.222l1.336-.617a1.942,1.942,0,0,0,1.007-1.3l.2-1.075a2.308,2.308,0,0,0-.351-1.577l-.76-1.068a.665.665,0,0,1-.033-.591l.631-1.133c.3-.023.6-.038.9-.038a11.543,11.543,0,0,1,1.98.178.972.972,0,0,0-.405.366l-.307.631a1.047,1.047,0,0,0,.245,1.07,1.13,1.13,0,0,1-.223,1.654,1.049,1.049,0,0,0-.521.967l.126.69a1.044,1.044,0,0,0,.826.723,1.131,1.131,0,0,1,.79,1.469,1.1,1.1,0,0,0,.129,1.1s.005.006.254.244.256.243.256.243a1.054,1.054,0,0,0,.63.194.985.985,0,0,0,.479-.115.9.9,0,0,1,.408-.089,1.156,1.156,0,0,1,.5.12,1.026,1.026,0,0,1,.592.693,1.045,1.045,0,0,0,.758.793l.695.094h.046a1.055,1.055,0,0,0,.9-.565,1.027,1.027,0,0,1,.755-.509,1.271,1.271,0,0,1,.224-.021.982.982,0,0,1,.663.234,1.038,1.038,0,0,0,.714.27.9.9,0,0,0,.366-.073l.617-.334c.014-.009.027-.021.041-.031a11.71,11.71,0,0,1,.119,1.653c0,.229-.008.455-.021.68l-.26-.145a2.681,2.681,0,0,0-1.568-.263l-1.741.308a1.993,1.993,0,0,0-1.313.98l-.3.6a2.681,2.681,0,0,0-.194,1.578L28,29.255a.258.258,0,0,1-.158.278l-.891.3a3.135,3.135,0,0,1-1.081.115l-1.909-.212a3.037,3.037,0,0,1-1.017-.354l-.307-.191a1.231,1.231,0,0,0-1.629.3L19.651,31.3a1.169,1.169,0,0,0,.234,1.632l.371.278a.547.547,0,0,1,.167.5L20,35.161A11.663,11.663,0,0,1,11.634,30.069Zm9.678,5.168c-.1,0-.194,0-.292-.007l.361-1.242a1.53,1.53,0,0,0-.528-1.578l-.371-.278a.164.164,0,0,1-.064-.109.166.166,0,0,1,.031-.123l1.356-1.808a.241.241,0,0,1,.3-.056l.306.191a3.935,3.935,0,0,0,1.436.5l1.909.212a4.093,4.093,0,0,0,1.507-.16l.892-.3a1.251,1.251,0,0,0,.817-1.443l-.429-1.932a1.711,1.711,0,0,1,.112-.914l.3-.6a1.007,1.007,0,0,1,.594-.443l1.741-.308a1.7,1.7,0,0,1,.909.152l.634.352A11.674,11.674,0,0,1,21.312,35.238ZM35.178,15.043a2.123,2.123,0,0,0-.437,3.234c0,.005,0,.011,0,.018l-.219.451-.013.007a1.559,1.559,0,0,0-.194-.011,2.087,2.087,0,0,0-1.49.661,2.048,2.048,0,0,0-.576,1.707l-.007.018-.44.238-.018,0a2,2,0,0,0-1.341-.5,2.265,2.265,0,0,0-.4.037,2.049,2.049,0,0,0-1.468,1.042l-.017.011-.5-.067-.012-.013a2.047,2.047,0,0,0-1.138-1.4,2.143,2.143,0,0,0-.937-.219,1.913,1.913,0,0,0-.87.2h-.017l-.03,0L24.9,20.3l-.165-.158a.2.2,0,0,1,0-.046,2.123,2.123,0,0,0-1.543-2.88l-.013-.011-.09-.493.01-.017a2.123,2.123,0,0,0,.436-3.234l0-.018.219-.451.012-.007a1.56,1.56,0,0,0,.194.011,2.086,2.086,0,0,0,1.49-.661,2.05,2.05,0,0,0,.576-1.707l.007-.017.44-.239.017,0a2,2,0,0,0,1.341.5,2.264,2.264,0,0,0,.4-.037A2.05,2.05,0,0,0,29.691,9.8l.018-.011.5.067.011.013a2.049,2.049,0,0,0,1.139,1.4,2.14,2.14,0,0,0,.935.218,1.917,1.917,0,0,0,.872-.2h.017l.029,0,.165.158.165.158a.2.2,0,0,1,0,.045,2.123,2.123,0,0,0,1.543,2.881l.013.011.09.493Z" transform="translate(-8.656 -8.781)"/><path class="c" d="M63.517,20.121a3.311,3.311,0,1,0,2.288.919A3.3,3.3,0,0,0,63.517,20.121Zm1.67,4.909a2.311,2.311,0,0,1-3.268.073,2.312,2.312,0,1,1,3.268-.073Z" transform="translate(-43.038 -16.344)"/></g></g><g transform="translate(-161.388 1647.05)"><path class="c" d="M44.57,12.1a.5.5,0,0,0,.369.164h0a.5.5,0,0,0,.369-.163l2.08-2.286a.5.5,0,1,0-.739-.672l-1.211,1.331,0-4.818a.5.5,0,0,0-.5-.5h0a.5.5,0,0,0-.5.5l0,4.816-1.208-1.33a.5.5,0,0,0-.74.672Z" transform="translate(3811.417 498.793)"/><path class="c" d="M70.751,67.488a.5.5,0,0,0-.476.522l.085,1.8-3.4-3.409a.5.5,0,1,0-.707.706l3.4,3.409-1.8-.087a.5.5,0,0,0-.048,1l3.087.149h.024a.5.5,0,0,0,.5-.523l-.146-3.087A.5.5,0,0,0,70.751,67.488Z" transform="translate(3795.583 458.045)"/><path class="c" d="M9.814,47.18,12.1,45.1a.5.5,0,0,0,0-.739l-2.286-2.08a.5.5,0,0,0-.672.739l1.331,1.212-4.818,0h0a.5.5,0,0,0,0,1l4.816,0-1.33,1.208a.5.5,0,0,0,.672.74Z" transform="translate(3836.232 474.118)"/><path class="c" d="M45.1,73.665a.5.5,0,0,0-.37-.164h0a.5.5,0,0,0-.369.163L42.283,75.95a.5.5,0,1,0,.739.672l1.212-1.332,0,4.819a.5.5,0,0,0,.5.5h0a.5.5,0,0,0,.5-.5l0-4.815,1.208,1.329a.5.5,0,0,0,.74-.672Z" transform="translate(3811.556 453.21)"/><path class="c" d="M19.7,18.833l1.794.086a.5.5,0,0,0,.048-1l-3.087-.148a.494.494,0,0,0-.377.146.5.5,0,0,0-.146.377l.146,3.087a.5.5,0,0,0,.5.476H18.6a.5.5,0,0,0,.476-.523l-.085-1.8,3.4,3.411a.5.5,0,0,0,.707-.706Z" transform="translate(3827.712 490.379)"/><path class="c" d="M80.11,44.446l-4.815,0,1.329-1.207a.5.5,0,0,0-.672-.74l-2.287,2.078a.5.5,0,0,0,0,.739l2.286,2.079a.5.5,0,1,0,.672-.739L75.29,45.44l4.819,0h0a.5.5,0,0,0,0-1Z" transform="translate(3790.649 473.977)"/><path class="c" d="M22.24,66.251l-3.408,3.4.086-1.794a.5.5,0,1,0-1-.047L17.773,70.9a.5.5,0,0,0,.5.523H18.3l3.087-.146a.5.5,0,1,0-.047-1l-1.8.085,3.41-3.4a.5.5,0,0,0-.707-.707Z" transform="translate(3827.818 458.143)"/><path class="c" d="M41.059,32a4.442,4.442,0,0,0-4.5,4.262A3.734,3.734,0,0,0,38,39.274c.5.477.766.75.766,1.257v2.627A1.334,1.334,0,0,0,40.1,44.49H41.98a1.333,1.333,0,0,0,1.332-1.331l0-2.628c0-.5.267-.777.779-1.254a3.716,3.716,0,0,0,1.461-3.014A4.443,4.443,0,0,0,41.059,32Zm.921,11.49H40.1a.338.338,0,0,1-.333-.333V41.992h2.552l0,1.166A.338.338,0,0,1,41.98,43.491Zm1.433-4.945a2.626,2.626,0,0,0-1.1,1.984v.463H39.763v-.463a2.636,2.636,0,0,0-1.077-1.982,2.782,2.782,0,0,1-1.124-2.286,3.505,3.505,0,0,1,6.994,0A2.766,2.766,0,0,1,43.413,38.546Z" transform="translate(3815.285 480.889)"/><path class="c" d="M66.751,23.248A.5.5,0,0,0,67.1,23.1l3.408-3.4-.086,1.794a.5.5,0,0,0,.475.523h.024a.5.5,0,0,0,.5-.476l.148-3.087a.5.5,0,0,0-.523-.523l-3.087.146a.5.5,0,1,0,.047,1l1.8-.085-3.409,3.4a.5.5,0,0,0,.353.853Z" transform="translate(3795.484 490.273)"/></g><g transform="translate(-190.975 1735.092)"><g transform="translate(3872.975 550.908)"><path class="c" d="M36.312,16H13.332A1.336,1.336,0,0,0,12,17.332V37.314a1.336,1.336,0,0,0,1.332,1.332h22.98a1.336,1.336,0,0,0,1.332-1.332V17.332A1.336,1.336,0,0,0,36.312,16Zm-22.98,1h22.98a.338.338,0,0,1,.333.333V20H13V17.332A.338.338,0,0,1,13.332,17Zm2.719,20.367-.038-.045c-.006-.076-.022-.3-.022-.625s.016-.551.022-.625l.038-.045a2.552,2.552,0,0,0,1.317-4.035v-.017l.774-1.065.02,0a3.059,3.059,0,0,0,.888.132,2.513,2.513,0,0,0,1.491-.463,2.766,2.766,0,0,0,1.05-2.164l.009-.016,1.253-.4.018.007a2.551,2.551,0,0,0,4.239,0l.018-.007,1.252.4.01.016a2.765,2.765,0,0,0,1.05,2.164,2.513,2.513,0,0,0,1.49.463,3.055,3.055,0,0,0,.889-.132l.02,0,.774,1.065v.016a2.552,2.552,0,0,0,1.317,4.036l.038.045c.006.076.022.3.022.624s-.016.551-.022.625l-.038.045a3.01,3.01,0,0,0-.6.281H29.506a4.641,4.641,0,1,0-9.036,0H16.648A2.979,2.979,0,0,0,16.051,37.366Zm5.295-.753a3.642,3.642,0,0,1,7.284,0,3.6,3.6,0,0,1-.155,1.035H21.5A3.6,3.6,0,0,1,21.346,36.613Zm14.965,1.035h-1.4a.837.837,0,0,0,.046-.19s.03-.278.03-.761-.03-.76-.03-.76a1.1,1.1,0,0,0-.709-.856,1.558,1.558,0,0,1-.818-2.517,1.042,1.042,0,0,0,.049-1.1l-.892-1.227a1.057,1.057,0,0,0-.78-.336.859.859,0,0,0-.279.044,2.019,2.019,0,0,1-.6.089,1.519,1.519,0,0,1-.9-.272,1.8,1.8,0,0,1-.638-1.374,1.047,1.047,0,0,0-.6-.917l-1.444-.466a.811.811,0,0,0-.2-.023,1.059,1.059,0,0,0-.832.409,1.8,1.8,0,0,1-1.322.734,1.8,1.8,0,0,1-1.322-.734,1.059,1.059,0,0,0-.832-.409.813.813,0,0,0-.2.023l-1.444.466a1.046,1.046,0,0,0-.6.917,1.8,1.8,0,0,1-.638,1.373,1.52,1.52,0,0,1-.9.272,2.023,2.023,0,0,1-.6-.089.859.859,0,0,0-.279-.044,1.056,1.056,0,0,0-.78.336L16.5,31.467a1.043,1.043,0,0,0,.049,1.1,1.558,1.558,0,0,1-.817,2.516,1.1,1.1,0,0,0-.709.856s-.03.278-.03.761.03.761.03.761a.821.821,0,0,0,.046.191H13.332A.338.338,0,0,1,13,37.315V21H36.645V37.314A.338.338,0,0,1,36.312,37.647Z" transform="translate(-12 -16)"/><circle class="c" cx="0.833" cy="0.833" r="0.833" transform="translate(22.313 1.665)"/><circle class="c" cx="0.833" cy="0.833" r="0.833" transform="translate(19.982 1.665)"/><circle class="c" cx="0.833" cy="0.833" r="0.833" transform="translate(17.651 1.665)"/></g></g></g></svg>