<svg xmlns="http://www.w3.org/2000/svg" viewBox="0 0 413.629 372.461"><defs><style>.a{fill:#f4c165;}.b{fill:#f4eddc;}</style></defs><path class="a" d="M102.882,75.707l2.782-.278,57.3-53.129L100.1,72.926Z" transform="translate(178.342 39.73)"/><path class="a" d="M115.416,83a44.323,44.323,0,0,0-3.616,3.616l5.563,1.947-.278-4.729Z" transform="translate(199.187 147.876)"/><path class="a" d="M102,74.579l1.947,3.338L168.481,25.9,105.616,69.572Z" transform="translate(181.727 46.144)"/><path class="a" d="M111.138,74.616,110.86,71c-1.113,1.113-1.947,2.225-3.06,3.338Z" transform="translate(192.06 126.496)"/><path class="a" d="M106.582,76.9a55.6,55.6,0,0,0-2.782,5.841l21.419,5.841,6.4-1.669.278-1.391Z" transform="translate(184.934 137.008)"/><path class="a" d="M97.2,45.472l4.729-1.113.278-3.06Z" transform="translate(173.175 73.582)"/><path class="a" d="M80.92,81.924,89.821.7,74.8,81.924Z" transform="translate(133.266 1.247)"/><path class="a" d="M75.438,82.993h2.5L81,.1,72.1,80.767A4.845,4.845,0,0,1,75.438,82.993Z" transform="translate(128.456 0.178)"/><path class="a" d="M83.72,80.5l14.465-79L77.6,80.5Z" transform="translate(138.255 2.672)"/><path class="a" d="M86.62,78.539,106.369,2.6,80.5,78.539Z" transform="translate(143.421 4.632)"/><path class="a" d="M85.269,76.044a6.957,6.957,0,0,1,3.616,1.113L113.642,4,83.6,76.044Z" transform="translate(148.945 7.127)"/><path class="a" d="M108.627,76.732c0,.278.278.278,0,0a3.965,3.965,0,0,1-1.669,3.338l-5.285,10.014,3.06-9.179c-.556,0-.835.278-1.391.278H98.057l-2.782,6.954,1.669-6.954H90.268L88.6,86.189l.834-5.007H82.758L81.923,84.8l.278-3.616H75.525l-.556,2.782V81.182H73.3v47.566c7.232.556,16.412,2.782,25.591,6.12a18,18,0,0,1,2.225-2.5c9.736-8.9,31.432-17.246,40.89-20.306l-4.172-2.225-2.782,2.225,2.225-2.5.278-.278,1.113-.278,6.954-7.232.278-1.947.835.834,54.8-58.414L130.88,107.608l60.361-73.992-65.647,69.541,54.8-77.886-60.361,74.27,48.957-81.224-54.8,77.608,43.115-84.284L108.07,92.865,144.788,5.8Z" transform="translate(130.594 10.333)"/><path class="a" d="M37.725,96.813V95.7L35.5,97.925A5.591,5.591,0,0,1,37.725,96.813Z" transform="translate(63.248 170.502)"/><path class="a" d="M110.1,89.572l65.647,27.816L112.6,85.4Z" transform="translate(196.158 152.152)"/><path class="a" d="M112.136,91.87c2.225-1.113,4.451-1.947,6.676-3.06L104.069,81.3c-.556,2.225-1.113,4.172-1.669,6.4Z" transform="translate(182.439 144.847)"/><path class="a" d="M121.359,91.617c2.5-1.113,5.007-1.947,6.954-2.782L105.225,79.1A54.1,54.1,0,0,0,103,85.22Z" transform="translate(183.508 140.927)"/><path class="a" d="M192.646,65H111.7l3.06,3.338,10.292-1.391L123.1,69.729Z" transform="translate(199.008 115.806)"/><path class="a" d="M130.793,72.537l.835,1.391-2.225-.556-10.014,6.12,8.067-6.4-2.782-.556L119.111,78.1l-.278-6.12-3.616,2.5,3.616-3.338v-.834c-13.63,10.848-16.133,29.207-16.412,35.6,8.9,5.841,14.464,10.848,14.464,10.57-9.736,20.028-19.75,40.056-29.485,60.083,16.69-14.464,46.175-28.373,59.527-34.214l-.278-.278-8.623-1.113h6.4l-6.676-3.616,9.458-2.225-9.179-.556,10.57-.835.834-5.841H137.748l11.961-1.669.556-3.338,2.782,3.06,81.78-11.127-97.914,6.676,95.966-19.471L135.8,115.1l94.3-25.869L134.131,108.7,226.2,76.71l-94.3,25.869L221.475,64.47,129.4,96.459l86.509-43.95L126.343,90.618l83.171-49.791L123,84.776,202.282,29.7Z" transform="translate(155.715 52.915)"/><path class="a" d="M73.194,83.171A4.326,4.326,0,0,1,75.42,81.5L72.36,0,69.3,83.171Z" transform="translate(123.467)"/><path class="a" d="M109.213,91a37.931,37.931,0,0,0-1.113,4.729l57.58,34.492Z" transform="translate(192.595 162.129)"/><path class="a" d="M119,92.874a78.38,78.38,0,0,0-57.3,0,241.643,241.643,0,0,1,28.929-1.669C100.365,91.205,109.822,92.04,119,92.874Z" transform="translate(109.927 155.804)"/><path class="a" d="M107.8,97.46c2.5.834,5.007,1.947,7.51,2.782L108.078,94.4A12.475,12.475,0,0,0,107.8,97.46Z" transform="translate(192.06 168.186)"/><path class="a" d="M102.078,86.4c0,.835-.278,1.669-.278,2.5.556-.278,1.391-.835,1.947-1.113Z" transform="translate(181.37 153.933)"/><path class="a" d="M111.079,88.429,103.291,83.7c-.556,2.225-.834,4.451-1.391,6.4l2.782,1.391A66.844,66.844,0,0,0,111.079,88.429Z" transform="translate(181.548 149.123)"/><path class="a" d="M110.669,88A28.959,28.959,0,0,0,109,92.451l62.587,31.711Z" transform="translate(194.198 156.784)"/><path class="a" d="M76.495,66.947l10.292,1.391L89.847,65H0l79,5.285Z" transform="translate(0 115.806)"/><path class="a" d="M69.047,83.916l-2.5-3.616L3.4,102.275l65.368-17.8Z" transform="translate(6.058 143.065)"/><path class="a" d="M114,87.238,174.361,108.1,117.338,83.9Z" transform="translate(203.106 149.479)"/><path class="a" d="M44.385,118.247,73.871,97.663c-.278-1.669-.556-3.616-.834-5.563L14.9,138.831l5.563-3.894A181.553,181.553,0,0,1,44.385,118.247Z" transform="translate(26.546 164.089)"/><path class="a" d="M75.7,89.2,12,133.428,77.368,94.207A17.681,17.681,0,0,0,75.7,89.2Z" transform="translate(21.38 158.922)"/><path class="a" d="M76.641,84.2l-5.285,2.782h0L7.1,119.527,79.979,88.372C78.866,87.26,77.754,85.591,76.641,84.2Z" transform="translate(12.65 150.014)"/><path class="a" d="M69.356,83.2l-5.841,1.391L5.1,109.347,72.137,85.982Z" transform="translate(9.086 148.232)"/><path class="a" d="M76.994,86.6,9.4,126.934l70.1-35.6C78.663,89.66,77.828,87.991,76.994,86.6Z" transform="translate(16.747 154.29)"/><path class="a" d="M124.652,74.994l-10.848-2.5-2.5,2.5,80.946,5.285L122.427,71.1Z" transform="translate(198.296 126.674)"/><path class="a" d="M114.1,71.06l1.113,1.669H188.37L116.325,68Z" transform="translate(203.284 121.151)"/><path class="a" d="M117,82.313l2.225,3.338,54.52,15.021L117.835,81.2Z" transform="translate(208.451 144.669)"/><path class="a" d="M104.9,80.541l26.147,5.285.278-2.5,3.06,3.338,6.954,1.391,1.669-.278-.278.556,56.189,11.4L107.96,74.7A58.863,58.863,0,0,0,104.9,80.541Z" transform="translate(186.893 133.088)"/><path class="a" d="M114.445,78.441l-.278-5.007-3.894-.834c-1.391,1.947-2.782,3.616-4.172,5.563l93.463,12.517L118.617,74.269Z" transform="translate(189.031 129.347)"/><path class="a" d="M83.171,71.416l-2.5-3.616L0,73.085H82.058Z" transform="translate(0 120.795)"/><path class="a" d="M79.342,103.126h0l.278.278,5.841,7.232L79.9,105.63l.834,5.285,6.954,1.669-5.007,2.782c9.179,3.338,31.154,11.4,40.89,20.306a21.238,21.238,0,0,1,2.5,2.5c9.179-3.338,18.359-5.563,25.313-6.12V84.211H147.77v2.225l-.278-2.225h-6.676v2.782l-.556-2.782h-6.676l.278,3.616-.835-3.616h-6.676l.834,5.007-1.669-5.007h-4.172a8.229,8.229,0,0,1-2.782-.556l1.947,7.51L84.071,4.1l30.32,89.29L71.275,8.829l37,87.065L59.036,14.67l43.115,84.284-54.8-77.886L96.31,102.292,35.948,28.578l54.8,77.886L25.1,36.645Z" transform="translate(44.719 7.305)"/><path class="a" d="M30.2,86.394l3.338-1.113a30.458,30.458,0,0,0-3.06-2.782Z" transform="translate(53.805 146.985)"/><path class="a" d="M75.478,78.539h1.391L51,2.6,71.306,80.486A5.437,5.437,0,0,1,75.478,78.539Z" transform="translate(90.863 4.632)"/><path class="a" d="M84.759,80.993l-4.451-6.12,3.894.556L18,22.3,83.647,82.94Z" transform="translate(32.069 39.73)"/><path class="a" d="M76.562,80.5,55.7,1.5l14.743,79Z" transform="translate(99.237 2.672)"/><path class="a" d="M75.621,81.924,60.6.7l8.9,81.224Z" transform="translate(107.967 1.247)"/><path class="a" d="M81.027,81.765l3.894-4.172L21.5,18.9,80.471,81.765Z" transform="translate(38.305 33.673)"/><path class="a" d="M78.773,89.737v.834l19.193-3.894-18.637,6.4.556,4.451,1.669.556,18.359-5.007-14.186,6.12,1.113.278-5.007,2.782c1.669.556,3.616,1.391,5.841,2.225l14.743-5.285-12.239,6.12c2.225.834,4.729,1.947,7.51,3.06l7.789-3.338-6.12,3.616c2.225,1.113,4.729,2.225,6.954,3.338l2.782-1.391-2.5,1.669a59.754,59.754,0,0,1,7.232,3.894c-1.669-13.352-6.676-31.432-20.028-45.063v2.782h1.391l-1.391.278-.278,6.676,3.06-.278L2,106.149l75.939-15.3Z" transform="translate(3.563 126.674)"/><path class="a" d="M89.456,72.6,1,90.681,95.019,78.163Z" transform="translate(1.782 129.347)"/><path class="a" d="M74.4,82.815,65.5.2l3.06,82.615Z" transform="translate(116.697 0.356)"/><path class="a" d="M90.147,133.827l3.894-3.894.834,4.729,2.782.278h-2.5l1.113,6.4h0v.278l10.57,2.5-8.9,5.007c13.352,5.841,42.837,19.75,59.527,34.214-9.736-20.028-19.75-40.056-29.485-60.083,0,.278,5.563-4.729,14.465-10.57-.556-6.4-2.782-25.035-16.412-35.883l-.834,7.789-5.563-5.563-1.391.278,1.669,1.669-2.225-1.669L112.4,80.42l1.947-3.338L40.912,25.9l75.1,60.361L32.845,36.47l79.277,55.076L25.613,47.6l83.171,49.791L19.215,59.28l86.509,43.95L13.652,71.241l89.569,38.108L8.923,83.48,101,115.469,5.029,96l94.3,25.869L2.247,108.793l95.966,19.471L.3,121.866Z" transform="translate(0.534 46.144)"/><path class="a" d="M87.921,73.382l-10.848,2.5,3.06-5.285L.3,81.17l89.569-5.841Z" transform="translate(0.534 125.783)"/><g transform="translate(2.782 80.667)"><path class="b" d="M106.817,125.141V119.3C58.138,129.87,30.6,156.018,30.6,156.018S65.927,135.433,106.817,125.141Z" transform="translate(51.736 131.882)"/><path class="b" d="M87.1,124.763c44.784,10.014,89.29,31.433,89.29,31.433s-37.552-26.7-89.29-37Z" transform="translate(152.399 131.704)"/><path class="b" d="M76.2,109.06l.556,1.669H92.885a7.18,7.18,0,0,1-2.5,2.5c-11.683-.556-11.961-.278-12.8.835l-.556.834.278.834a7.889,7.889,0,0,0,2.5,6.12,12.127,12.127,0,0,0,7.51,2.5h1.669a2.637,2.637,0,0,0,2.225-2.5,2.292,2.292,0,0,0-2.782-1.947c-.834,0-3.894,0-5.285-1.113-.278-.278-.556-.556-.556-.834,2.225,0,5.563.278,8.345.278h.556l.556-.278c.278,0,6.676-3.06,6.12-9.179-.278-2.225-1.947-2.225-5.007-2.225H80.646c-1.113-3.616-4.172-12.239-7.51-16.412-1.947-2.5-5.563-12.239-2.225-19.471,2.225-5.007,7.51-8.067,15.3-8.9,7.232.556,12.517,3.06,15.577,7.232,4.451,6.12,2.5,14.464,2.5,14.464-.556,1.669-2.782,4.451-4.729,6.676-1.947,2.5-3.894,4.729-4.451,6.4l-.278.556c-.278,1.113-.834,2.5-1.113,3.338a6.329,6.329,0,0,1-4.172-1.113c-1.391-1.391-1.947-4.172-1.669-7.789a8.122,8.122,0,0,0,7.232-8.067,8.556,8.556,0,0,0-8.345-8.345A8.339,8.339,0,0,0,83.149,90.98c-.556,5.563.556,9.458,3.06,11.961,3.894,3.616,9.179,2.225,9.179,2.225,1.947-.556,2.5-2.225,3.894-6.12l.278-.556c.278-1.113,1.947-3.06,3.616-5.007,2.225-2.782,4.729-5.841,5.563-8.345.556-1.947,1.947-11.127-3.06-18.359-3.894-5.563-10.57-8.623-19.471-9.179h-.556c-12.239,1.113-17.524,6.954-19.471,11.683-3.894,8.9-.278,20.306,3.06,24.2C72.857,97.377,76.2,109.06,76.2,109.06Zm9.736-22.809H85.1a3.614,3.614,0,0,1-2.225-3.338,3.616,3.616,0,1,1,7.232,0,3.63,3.63,0,0,1-3.338,3.616A1.022,1.022,0,0,0,85.931,86.251Z" transform="translate(112.121 21.955)"/><path class="b" d="M31.876,118.075c-5.285-1.391-10.848-.278-16.968,3.06L1,128.645l20.862,34.492,13.63-7.51c6.12-3.338,10.014-7.51,11.4-12.517s.556-10.014-2.5-15.3A20.643,20.643,0,0,0,31.876,118.075Zm-.834,30.876-5.285,2.782L13.239,131.149l5.285-2.782c4.172-2.5,7.789-3.06,10.57-2.225s5.285,3.06,7.232,6.12C40.221,138.659,39.387,144.222,31.042,148.951Z" transform="translate(-1 128.656)"/><path class="b" d="M57.756,137.251l-17.8,7.789-3.894-7.51L52.47,130.3l-3.338-7.232L32.721,130.3l-3.338-6.676,17.524-7.789L43.291,108.6,17.7,120l17.524,36.161,26.147-11.683Z" transform="translate(28.753 112.818)"/><path class="b" d="M61.242,103.3,31.2,113.314l2.782,7.51,10.848-3.616L55.678,147.25l8.623-3.06L53.453,114.148l10.57-3.338Z" transform="translate(52.805 103.375)"/><path class="b" d="M91.439,116.534a18.805,18.805,0,0,0-9.458-13.074,21.72,21.72,0,0,0-16.69-2.782,21.431,21.431,0,0,0-14.186,8.9,19.719,19.719,0,0,0,6.12,28.651,23,23,0,0,0,16.69,2.782,21.431,21.431,0,0,0,14.186-8.9A18.528,18.528,0,0,0,91.439,116.534ZM80.591,127.661a12.246,12.246,0,0,1-8.345,5.285,14.355,14.355,0,0,1-9.736-1.669,12.7,12.7,0,0,1-5.563-8.067,11.488,11.488,0,0,1,1.947-9.458,12.246,12.246,0,0,1,8.345-5.285,13.032,13.032,0,0,1,9.736,1.947,12.7,12.7,0,0,1,5.563,8.067A12.175,12.175,0,0,1,80.591,127.661Z" transform="translate(81.579 97.651)"/><path class="b" d="M77.758,116.893,105.3,141.372l.835-41.168-8.9-.278-.556,22.531L69.134,97.7,68.3,139.146l8.9.278Z" transform="translate(118.904 93.398)"/><path class="b" d="M94.614,138.665l4.451-5.563,16.968,3.616,1.669,6.954,9.458,1.947L115.2,100,84.6,136.718Zm16.968-21.419,2.782,11.4-10.292-2.225Z" transform="translate(147.945 97.496)"/><path class="b" d="M135.467,135.111,117.943,103.4,103.2,142.343l8.623,2.782,7.789-21.14,17.8,31.711,14.743-38.943-8.623-3.06Z" transform="translate(181.083 103.554)"/><path class="b" d="M158.583,122.517,129.654,110l-3.338,7.232,10.292,4.451L122.7,150.89l8.345,3.616L144.953,125.3l10.014,4.451Z" transform="translate(215.825 115.312)"/><path class="b" d="M173.312,136.15l3.894-6.954-25.313-12.8L132.7,151.727l25.313,12.8,3.894-6.954-17.246-8.9,4.172-7.51,15.855,8.067,3.894-6.954L152.45,134.2l3.616-6.4Z" transform="translate(233.641 126.715)"/><path class="b" d="M172.328,201.183c71.21,0,171.9,48.4,171.9,48.4s-28.929-20.306-72.6-36.161c.278-5.841,2.5-25.035,16.412-36.161l.278,7.51,5.563-5.563,6.954,1.669-3.616-6.12,4.451-6.12-6.676.835-5.007-5.285-1.113,7.789-6.954,1.669,5.007,2.782c-6.954,2.5-21.419,7.789-31.989,14.186,1.669-13.352,6.676-31.433,20.028-45.062l.556,10.014,8.623-8.623,10.848,2.5-5.563-9.458,6.954-9.458L286.1,131.642l-7.789-8.067-1.947,11.961-10.57,2.5,8.9,5.007c-13.352,5.841-42.837,19.75-59.527,34.214,9.736-20.028,19.75-40.056,29.485-60.083,0,.278-5.563-5.007-14.464-10.57.556-6.4,3.06-24.757,16.412-35.6l.278,7.51,5.563-5.563,6.954,1.669-3.616-6.12,4.451-6.12-6.676.834-5.007-5.285-1.113,7.789-6.954,1.669,5.007,2.782c-9.179,3.338-31.154,11.4-40.89,20.306a17.993,17.993,0,0,0-2.225,2.5c-9.179-3.338-18.359-5.563-25.591-6.12V39.292h29.763c2.782,0,5.007-1.947,5.007-4.172s-2.225-4.172-5.007-4.172H175.666A4.755,4.755,0,0,0,172.05,29a3.991,3.991,0,0,0-3.616,1.947h-30.32c-2.782,0-5.007,1.947-5.007,4.172s2.225,4.172,5.007,4.172h29.763V87.136c-7.232.556-16.412,2.782-25.313,6.12a10.622,10.622,0,0,0-2.5-2.5c-9.736-8.9-31.432-17.246-40.89-20.306l5.007-2.782L97.224,66l-1.113-7.789L91.1,63.492,84.15,62.38,88.6,68.5l-3.616,6.12,6.954-1.669L97.5,78.513,97.78,71c13.63,10.848,16.133,29.485,16.412,35.883a113.915,113.915,0,0,0-14.464,10.57c9.736,20.028,19.75,40.056,29.485,60.083-16.69-14.464-46.175-28.373-59.527-34.214l8.9-5.007-10.57-2.5-1.947-11.961-7.51,8.067-10.292-1.113,6.954,9.458-5.563,9.458,10.848-2.5,8.623,8.623.556-10.014c13.352,13.352,18.359,31.432,20.028,45.063-10.848-6.4-25.035-11.683-31.989-14.186l5.007-2.782-6.954-1.669-1.113-7.789-5.007,5.285-6.676-.835,4.451,6.12-3.616,6.12,6.954-1.669,5.563,5.563.278-7.51c15.855,12.517,16.69,35.327,16.69,37.83-37,15.577-57.3,34.77-57.3,34.77S99.171,201.183,172.328,201.183Zm0-6.12a241.639,241.639,0,0,0-28.929,1.669,78.38,78.38,0,0,1,57.3,0A239.12,239.12,0,0,0,172.328,195.064ZM109.741,119.4a110.908,110.908,0,0,1,20.028-12.517h0c13.352-6.954,31.711-12.517,41.446-12.517h2.225c10.014,0,27.816,5.285,41.446,12.517h0A113.319,113.319,0,0,1,234.358,119.4l-19.193,6.4,10.57,8.067-14.186,8.067,8.067,7.51-.278.556c-3.06.556-18.081,3.616-15.021,5.563,2.5,1.669,6.12,5.841,8.067,8.345l-1.113,1.947-14.186.835,8.9,9.736-.278.556h-9.736l4.172,11.4a87.482,87.482,0,0,0-56.745,0Z" transform="translate(25.725 -29)"/></g><g transform="translate(167.454 323.782)"><path class="b" d="M77.168,137.819H60.756l5.007-5.285a16.21,16.21,0,0,0,3.06-3.616,6.568,6.568,0,0,0,1.669-2.5,3.954,3.954,0,0,0,.556-1.669v-1.113a1.022,1.022,0,0,0-.278-.835c0-.278-.278-.556-.556-.834s-.556-.278-.834-.556c-.278,0-.556-.278-1.113-.278a1.682,1.682,0,0,0-1.669.834,3.954,3.954,0,0,0-.556,1.669v.834H60.2a13.962,13.962,0,0,1,.556-3.338,6.569,6.569,0,0,1,1.669-2.5,13.061,13.061,0,0,1,2.5-1.669,8.693,8.693,0,0,1,6.12,0,11.277,11.277,0,0,1,2.5,1.391,6.694,6.694,0,0,1,1.669,2.225,9.883,9.883,0,0,1,.556,2.782,5.607,5.607,0,0,1-.834,3.06,9.767,9.767,0,0,1-2.225,2.782l-3.338,3.06h6.676v5.563Z" transform="translate(-60.2 -116.4)"/><path class="b" d="M66.9,127.348a21.62,21.62,0,0,1,.556-4.451,18.519,18.519,0,0,1,1.669-3.338,10.891,10.891,0,0,1,2.782-2.225,8.252,8.252,0,0,1,7.232,0,7.064,7.064,0,0,1,2.782,2.225A6.345,6.345,0,0,1,83.59,122.9a11.529,11.529,0,0,1,.556,4.451,21.618,21.618,0,0,1-.556,4.451,18.52,18.52,0,0,1-1.669,3.338,10.891,10.891,0,0,1-2.782,2.225,8.252,8.252,0,0,1-7.232,0,7.064,7.064,0,0,1-2.782-2.225,6.345,6.345,0,0,1-1.669-3.338A21.62,21.62,0,0,1,66.9,127.348Zm5.285,0a7.7,7.7,0,0,0,.278,2.5,17.732,17.732,0,0,0,.556,1.947,4.883,4.883,0,0,0,1.113,1.391,2.125,2.125,0,0,0,1.391.556c.556,0,.834-.278,1.391-.556a2.777,2.777,0,0,0,1.113-1.391,4.02,4.02,0,0,0,.556-1.947,11.4,11.4,0,0,0,0-5.007,17.716,17.716,0,0,0-.556-1.947,2.172,2.172,0,0,0-1.113-1.113c-.556-.278-.835-.556-1.391-.556a2.125,2.125,0,0,0-1.391.556L73.02,122.9a4.02,4.02,0,0,0-.556,1.947A7.7,7.7,0,0,0,72.185,127.348Z" transform="translate(-48.263 -116.222)"/><path class="b" d="M77.36,121.251H74.3V116.8h8.345v20.306H77.36Z" transform="translate(-35.079 -115.687)"/><path class="b" d="M83.472,126.436a4.4,4.4,0,0,1-3.06-4.451,5.24,5.24,0,0,1,.556-2.225,4.089,4.089,0,0,1,1.391-1.669,5.591,5.591,0,0,1,2.225-1.113,8.575,8.575,0,0,1,2.782-.278,8.575,8.575,0,0,1,2.782.278,5.591,5.591,0,0,1,2.225,1.113,7.374,7.374,0,0,1,1.391,1.669,5.24,5.24,0,0,1,.556,2.225,2.084,2.084,0,0,1-.278,1.391,1.445,1.445,0,0,1-.556,1.113L92.374,125.6a9.263,9.263,0,0,1-1.669.835c2.782,1.113,4.172,2.782,4.172,5.285a8.122,8.122,0,0,1-.556,2.5,3.74,3.74,0,0,1-1.669,1.947,8.843,8.843,0,0,1-8.623,1.391,11.277,11.277,0,0,1-2.5-1.391,5.663,5.663,0,0,1-1.669-1.947,8.122,8.122,0,0,1-.556-2.5C79.578,129.217,80.969,127.548,83.472,126.436Zm1.391,4.451a1.022,1.022,0,0,0,.278.835c0,.278.278.556.556.834s.556.278.834.556c.278,0,.556.278.834.278a1.022,1.022,0,0,0,.834-.278c.278,0,.556-.278.834-.556s.278-.556.556-.834c0-.278.278-.556.278-.835a1.983,1.983,0,0,0-.834-1.669,2.4,2.4,0,0,0-1.669-.835,1.983,1.983,0,0,0-1.669.835A2.4,2.4,0,0,0,84.863,130.886Zm.278-8.9a3.953,3.953,0,0,0,.556,1.669c.556.556.834.556,1.669.556a1.022,1.022,0,0,0,.835-.278c.278,0,.556-.278.834-.556s.278-.556.556-.834c0-.278.278-.556.278-.834a3.954,3.954,0,0,0-.556-1.669c-.556-.556-.835-.556-1.669-.556a3.954,3.954,0,0,0-1.669.556A2.312,2.312,0,0,0,85.141,121.985Z" transform="translate(-26.171 -115.866)"/></g></svg>