<svg xmlns="http://www.w3.org/2000/svg" viewBox="0 0 182.61 164.49"><defs><style>.cls-1{fill:#ea5f5a;}.cls-2{fill:#f4eddc;}.cls-3{fill:#fcd033;}</style></defs><title>logo_detonante</title><g id="Layer_2" data-name="Layer 2"><g id="Layer_3" data-name="Layer 3"><polygon class="cls-1" points="124.25 50.99 125.37 50.86 150.76 27.39 122.99 49.69 124.25 50.99"/><path class="cls-1" d="M138.91,102a16.72,16.72,0,0,0-1.54,1.62l2.45.85-.1-2.12Z"/><polygon class="cls-1" points="125.27 53.31 126.11 54.73 154.64 31.82 126.86 51.14 125.27 53.31"/><path class="cls-1" d="M133.93,88.86l-.07-1.54c-.47.47-.9,1-1.32,1.45Z"/><path class="cls-1" d="M128.77,94.45c-.44.87-.83,1.75-1.18,2.63l9.49,2.6L140,99l.09-.6Z"/><polygon class="cls-1" points="119.42 52.56 121.45 52.06 121.66 50.76 119.42 52.56"/><polygon class="cls-1" points="94.55 36.78 98.51 0.81 91.88 36.78 94.55 36.78"/><path class="cls-1" d="M90.09,36.78h1.07L92.5.2,88.58,35.88A1.88,1.88,0,0,1,90.09,36.78Z"/><polygon class="cls-1" points="98.01 36.78 104.45 1.81 95.34 36.78 98.01 36.78"/><polygon class="cls-1" points="101.56 36.78 110.31 3.21 98.91 36.78 101.56 36.78"/><path class="cls-1" d="M103.47,36.78a2.53,2.53,0,0,1,1.6.55L116.06,5,102.63,36.78Z"/><path class="cls-1" d="M105.69,38.47a.5.5,0,0,1,0,.12,1.68,1.68,0,0,1-.76,1.34l-2.28,4.48,1.39-4.09a2.88,2.88,0,0,1-.59.07h-2.36l-1.28,3,.79-3H97.69l-.76,2.23.41-2.23H94.4L94,42l.18-1.63h-3L91,41.62l0-1.23h-.69V61.45a44.33,44.33,0,0,1,11.26,2.67,9.85,9.85,0,0,1,1-1.07c4.29-4,13.93-7.59,18-9l-1.83-1-1.25,1,1-1.1-.22-.12.43-.11,3-3.21.13-.84.33.35,24.25-25.76L115.41,52l26.67-32.66-29,30.8,24.22-34.36L110.66,48.47l21.65-35.89L108.09,46.94l19-37.25L105.43,45.58,121.66,7.16Z"/><path class="cls-1" d="M44.57,118c0-.09,0-.26,0-.49l-1,.93Z"/><path class="cls-1" d="M135.26,106.74l29,12.34-27.86-14.17A19.4,19.4,0,0,0,135.26,106.74Z"/><path class="cls-1" d="M130.12,104.55c1-.46,2-.9,3-1.3l-6.53-3.32c-.3.94-.54,1.87-.76,2.79Z"/><path class="cls-1" d="M134.63,102.64c1.13-.45,2.18-.84,3.1-1.17l-10.17-4.33q-.54,1.35-1,2.7Z"/><polygon class="cls-1" points="172.93 79.9 137.22 79.9 138.57 81.29 143.16 80.74 142.28 81.95 172.93 79.9"/><path class="cls-1" d="M126.53,55.43l.35.58-1-.22-4.46,2.67L125,55.59l-1.25-.28-2.45,2.45-.13-2.69-1.6,1.11,1.58-1.46V54.4c-6,4.79-7.09,12.94-7.29,15.76a73.11,73.11,0,0,1,6.38,4.71q-6.51,13.23-13,26.47c7.32-6.38,20.35-12.49,26.27-15.09l-.13-.07-3.75-.5h2.83l-2.89-1.59,4.2-1-4-.27,4.61-.31.41-2.58h-5.12l5.23-.7.24-1.51L136.35,79l36.16-4.87L129.3,77l42.37-8.62-42.89,5.77,41.63-11.42-42.36,8.62,40.7-14.17L127.12,68.63l39.56-16.85L126,66,164.23,46.5,124.66,63.36l36.73-22L123.15,60.85l35-24.36Z"/><path class="cls-1" d="M86.81,36.78a1.9,1.9,0,0,1,1-.79L86.47,0,85.12,36.78Z"/><path class="cls-1" d="M133.29,111.77c-.2.75-.36,1.47-.49,2.13l25.39,15.18Z"/><path class="cls-1" d="M101.08,109.84a34.89,34.89,0,0,0-25.28,0,113.66,113.66,0,0,1,25.28,0Z"/><path class="cls-1" d="M132.36,117.3c1.14.42,2.26.84,3.35,1.26L132.48,116C132.42,116.5,132.39,117,132.36,117.3Z"/><path class="cls-1" d="M125.17,106.13c0,.35-.11.7-.15,1l.91-.52Z"/><path class="cls-1" d="M129.24,105l-3.46-2.07c-.22,1-.41,2-.56,2.89l1.2.61C127.33,105.89,128.28,105.41,129.24,105Z"/><path class="cls-1" d="M134.57,108.15c-.3.67-.56,1.33-.78,2l27.6,14Z"/><polygon class="cls-1" points="33.74 80.74 38.34 81.29 39.68 79.9 0 79.9 34.84 82.23 33.74 80.74"/><polygon class="cls-1" points="33.14 100.23 32 98.68 4.18 108.37 33 100.46 33.14 100.23"/><polygon class="cls-1" points="140 104.51 166.68 113.8 141.46 103.06 140 104.51"/><path class="cls-1" d="M31.35,124.68l13-9.06c-.09-.72-.23-1.55-.43-2.47L18.29,133.76l2.39-1.67A87.94,87.94,0,0,1,31.35,124.68Z"/><path class="cls-1" d="M42.89,109.51,14.74,129.08l28.89-17.27C43.43,111.07,43.19,110.3,42.89,109.51Z"/><path class="cls-1" d="M39.42,103.45l-2.34,1.2v0L8.7,119.08l32.15-13.7A17.16,17.16,0,0,0,39.42,103.45Z"/><polygon class="cls-1" points="34.62 102.23 32.05 102.81 6.25 113.8 35.88 103.48 34.62 102.23"/><path class="cls-1" d="M41.42,106.32,11.54,124.18l30.93-15.73C42.16,107.74,41.81,107,41.42,106.32Z"/><polygon class="cls-1" points="142.62 89.03 137.85 87.95 136.75 89.05 172.51 91.44 141.58 87.28 142.62 89.03"/><polygon class="cls-1" points="140.14 84.87 140.62 85.68 172.93 85.68 141.1 83.55 140.14 84.87"/><polygon class="cls-1" points="143.77 100.23 144.69 101.77 168.75 108.37 144.09 99.79 143.77 100.23"/><path class="cls-1" d="M128.82,94.36l11.5,2.33.17-1.12,1.4,1.44,3.09.63.75-.09-.16.21,24.84,5.06-40.13-11C129.75,92.64,129.26,93.49,128.82,94.36Z"/><path class="cls-1" d="M134.07,91.72,134,89.5l-1.74-.36a30,30,0,0,0-1.81,2.47l41.26,5.55L135.9,89.89Z"/><polygon class="cls-1" points="36.77 84.87 35.62 83.3 0 85.68 36.28 85.68 36.77 84.87"/><path class="cls-1" d="M54.83,48.74l.08-.09,0,.23L57.52,52l-2.43-2.25.36,2.28,3,.75L56.25,54c4.11,1.42,13.75,5,18,9a9.84,9.84,0,0,1,1.07,1.13,47.45,47.45,0,0,1,11.21-2.71V40.39H85l0,1-.12-1H81.9l0,1.23-.22-1.23h-3L79,42l-.42-1.63H75.59L76,42.62l-.76-2.23h-1.8a2.64,2.64,0,0,1-1.21-.29l.87,3.32L56.87,5,70.26,44.41l-19-37.25L67.5,45.58,45.85,9.69l19,37.25L40.62,12.58,62.28,48.47,35.61,15.81,59.83,50.17l-29-30.8Z"/><path class="cls-1" d="M37.15,103l1.43-.5a13.15,13.15,0,0,0-1.35-1.22Z"/><path class="cls-1" d="M73.44,36.78H74L62.62,3.21l9,34.37A2.42,2.42,0,0,1,73.44,36.78Z"/><polygon class="cls-1" points="51.64 53.31 49.68 50.63 51.36 50.84 22.17 27.39 51.13 54.16 51.64 53.31"/><polygon class="cls-1" points="77.59 36.78 68.48 1.81 74.92 36.78 77.59 36.78"/><polygon class="cls-1" points="81.05 36.78 74.42 0.81 78.38 36.78 81.05 36.78"/><polygon class="cls-1" points="52.66 50.99 54.42 49.16 26.36 23.23 52.46 50.97 52.66 50.99"/><path class="cls-1" d="M36.41,95.57l.05.34,8.42-1.71-8.23,2.87L37,99l.77.19L45.82,97l-6.27,2.67.45.11L37.75,101c.72.25,1.63.57,2.64,1L47,99.63l-5.38,2.73c1,.4,2.13.84,3.26,1.33l3.44-1.47-2.86,1.71c1,.45,2.07.93,3.1,1.44l1.27-.65-1.07.75c1.1.54,2.17,1.11,3.17,1.7-.76-6-2.94-13.92-8.83-19.85L43,88.59l.64,0-.65.13-.13,2.89,1.3-.18L2.52,102.82,36,96Z"/><polygon class="cls-1" points="40.33 89.22 1.26 97.17 42.71 91.59 40.33 89.22"/><polygon class="cls-1" points="84.45 36.78 80.43 0.2 81.77 36.78 84.45 36.78"/><path class="cls-1" d="M40.1,79.47l1.72-1.78.32,2,1.17.16H42.17l.45,2.85.59,0-.58,0,0,.11,4.69,1.15-3.93,2.16c5.92,2.6,18.94,8.71,26.26,15.09l-13-26.47A75,75,0,0,1,63,70.21c-.19-2.77-1.27-11-7.29-15.81l-.16,3.36-2.46-2.45-.59.13.8.74-1-.69L50,56l.89-1.5L18.29,31.82,51.47,58.46l-36.73-22,35,24.36L11.54,41.39l36.73,22L8.7,46.5,47,66,6.25,51.78,45.82,68.63,4.18,57.21l40.7,14.17L2.52,62.76,44.15,74.18,1.26,68.41,43.63,77,.42,74.13Z"/><polygon class="cls-1" points="39.05 87.95 34.28 89.03 35.67 86.7 0.42 91.44 39.91 88.8 39.05 87.95"/><path class="cls-2" d="M71.23,149.14v-2.59c-21.45,4.68-33.69,16.15-33.69,16.15A147.5,147.5,0,0,1,71.23,149.14Z"/><path class="cls-2" d="M107,148.85c19.77,4.39,39.41,13.85,39.41,13.85A114.68,114.68,0,0,0,107,146.38Z"/><path class="cls-2" d="M84.42,93.54l.22.77h.83c2.32,0,4.86-.06,6.29,0a2.92,2.92,0,0,1-1.07,1.07c-5.12-.29-5.24-.14-5.62.33l-.35.45.12.35A3.47,3.47,0,0,0,86,99.19a5.09,5.09,0,0,0,3.31,1,5.66,5.66,0,0,0,.71,0,1,1,0,0,0,.93-1.15,1.06,1.06,0,0,0-1.2-.89,3.41,3.41,0,0,1-2.3-.5,1.22,1.22,0,0,1-.29-.41c1,0,2.44.08,3.74.15l.28,0,.25-.12c.12,0,2.9-1.37,2.7-4.11-.08-1-.9-1-2.26-1H89.23l-3,0c-.51-1.62-1.8-5.37-3.35-7.28-.87-1.07-2.5-5.35-1-8.63,1-2.24,3.27-3.55,6.75-3.9,3.23.26,5.55,1.31,6.87,3.14A8.57,8.57,0,0,1,96.64,82a13.19,13.19,0,0,1-2.08,3,11.4,11.4,0,0,0-1.93,2.81l-.11.31c-.17.49-.38,1.09-.52,1.41a2.48,2.48,0,0,1-1.81-.54c-.66-.61-.9-1.79-.72-3.41a3.7,3.7,0,1,0-2.13-.32c-.29,2.4.18,4.17,1.4,5.26a5,5,0,0,0,4.09,1c.86-.21,1.13-1,1.74-2.74l.1-.31a12.57,12.57,0,0,1,1.59-2.18,13.39,13.39,0,0,0,2.44-3.69,10.39,10.39,0,0,0-1.4-8.13c-1.72-2.4-4.61-3.77-8.59-4.06h-.19c-5.44.52-7.69,3.08-8.61,5.14-1.76,3.9-.12,9,1.3,10.72C82.91,88.31,84.4,93.49,84.42,93.54Zm4.32-10.16a1.13,1.13,0,0,0-.41,0,1.6,1.6,0,0,1-.94-1.47,1.55,1.55,0,1,1,1.68,1.58A1.17,1.17,0,0,0,88.74,83.38Z"/><path class="cls-2" d="M14.84,144.6a10,10,0,0,0-7.52,1.31l-6,3.33,9.18,15.25,6.06-3.34q4.08-2.25,5-5.5a8.25,8.25,0,0,0-1.14-6.74A8.84,8.84,0,0,0,14.84,144.6Zm-.39,13.61-2.31,1.27-5.49-9.12,2.28-1.26c1.9-1,3.48-1.36,4.72-1a5.72,5.72,0,0,1,3.19,2.72C18.53,153.66,18.19,156.15,14.45,158.21Z"/><polygon class="cls-2" points="39.43 146.04 31.56 149.53 29.91 146.12 37.11 142.93 35.59 139.79 28.39 142.99 26.93 139.98 34.64 136.57 33.09 133.36 21.7 138.41 29.42 154.38 40.98 149.25 39.43 146.04"/><polygon class="cls-2" points="51.55 126.83 38.38 131.25 39.6 134.59 44.3 133.01 49.16 146.28 53 144.99 48.14 131.72 52.77 130.17 51.55 126.83"/><path class="cls-2" d="M77.65,130.2a8.63,8.63,0,0,0-4.16-5.79,9.94,9.94,0,0,0-7.35-1.28A9.77,9.77,0,0,0,59.86,127a8.39,8.39,0,0,0-1.45,6.88,8.72,8.72,0,0,0,4.14,5.82A10.13,10.13,0,0,0,69.92,141a9.78,9.78,0,0,0,6.28-3.89A8.43,8.43,0,0,0,77.65,130.2Zm-4.82,5a5.45,5.45,0,0,1-3.65,2.36,5.78,5.78,0,0,1-4.33-.79,5.45,5.45,0,0,1-2.46-3.59,5.22,5.22,0,0,1,.82-4.18,5.55,5.55,0,0,1,3.66-2.38,5.76,5.76,0,0,1,4.35.83A5.46,5.46,0,0,1,73.67,131,5.23,5.23,0,0,1,72.83,135.17Z"/><polygon class="cls-2" points="88.12 128.43 100.21 139.35 100.65 121.08 96.64 120.99 96.4 130.98 84.31 120.04 83.88 138.31 87.89 138.4 88.12 128.43"/><path class="cls-2" d="M108.3,139.87l2-2.44,7.5,1.56.77,3,4.23.88-5.23-20.12L104.1,139Zm7.52-9.41,1.26,5-4.56-.95Z"/><polygon class="cls-2" points="141.06 141.02 133.23 126.97 126.76 144.17 130.53 145.47 134.06 136.09 141.91 150.11 148.38 132.92 144.6 131.62 141.06 141.02"/><polygon class="cls-2" points="166.52 140.66 153.82 135.13 152.29 138.34 156.83 140.32 150.75 153.12 154.44 154.73 160.53 141.93 164.99 143.87 166.52 140.66"/><polygon class="cls-2" points="180.9 151.74 182.61 148.61 171.49 143.03 162.96 158.61 174.24 164.27 175.96 161.14 168.27 157.29 170.09 153.95 177.13 157.48 178.8 154.42 171.77 150.89 173.38 147.96 180.9 151.74"/><path class="cls-2" d="M88.68,111.66c31.4,0,75.86,21.42,75.86,21.42a148.05,148.05,0,0,0-32.1-16c.17-2.59,1.16-11.06,7.31-16l.16,3.35,2.46-2.44,3.09.7-1.61-2.7,2-2.68-3,.36-2.26-2.34-.53,3.4-3,.75,2.25,1.24a84.48,84.48,0,0,0-14.14,6.21c.77-6,3-13.92,8.84-19.85l.21,4.4,3.78-3.77,4.77,1.08-2.48-4.17,3-4.12-4.59.55-3.48-3.6-.83,5.24-4.7,1.16L133.58,86c-5.92,2.6-19,8.71-26.26,15.09l13-26.48a77.21,77.21,0,0,0-6.38-4.7c.2-2.83,1.31-11,7.29-15.76l.16,3.35,2.45-2.44,3.1.7-1.61-2.7,2-2.68-3,.36-2.26-2.34-.53,3.4-3.05.75,2.25,1.24c-4.11,1.42-13.75,5-18,9a9.85,9.85,0,0,0-1,1.07,44.82,44.82,0,0,0-11.26-2.68V40.16h13.13a2.06,2.06,0,0,0,2.24-1.8,2.06,2.06,0,0,0-2.24-1.81H90.17a1.92,1.92,0,0,0-3.27,0H73.52a2.06,2.06,0,0,0-2.24,1.81,2.06,2.06,0,0,0,2.24,1.8H86.65V61.24A47.45,47.45,0,0,0,75.44,64a9.84,9.84,0,0,0-1.07-1.13c-4.29-4-13.93-7.59-18-9l2.25-1.24-3-.75L55,48.42l-2.25,2.34-3-.36,2,2.68-1.61,2.7,3.09-.7,2.46,2.44.16-3.35c6,4.82,7.1,13,7.29,15.81-3.93,2.51-6.36,4.73-6.38,4.65l13,26.48C62.43,94.73,49.41,88.62,43.49,86l3.94-2.16-4.7-1.16-.83-5.24-3.48,3.6-4.59-.55,3,4.12L34.37,88.8l4.77-1.08,3.78,3.77.21-4.4C49,93,51.2,101,52,106.94a84.83,84.83,0,0,0-14.14-6.21l2.25-1.24-3-.75-.54-3.4-2.25,2.34-3-.36,2,2.68-1.61,2.7,3.09-.7,2.46,2.44.16-3.35c6.94,5.55,7.31,15.63,7.33,16.67-16.31,6.9-25.29,15.32-25.29,15.32S56.35,111.66,88.68,111.66Zm0-2.76a114.17,114.17,0,0,0-12.8.72,34.84,34.84,0,0,1,25.28,0A113.29,113.29,0,0,0,88.68,108.9ZM61,75.56a53.64,53.64,0,0,1,8.79-5.51l0,0,0,0c5.89-3.1,13.95-5.52,18.33-5.52h.9c4.47,0,12.31,2.38,18.25,5.55l0,0,0,0a53.11,53.11,0,0,1,8.59,5.46l-8.45,2.83,4.73,3.52L106,85.41l3.52,3.36-.1.2c-1.39.27-8,1.57-6.57,2.47a20.07,20.07,0,0,1,3.55,3.68L106,96l-6.25.43,4,4.25-.14.27H99.19l1.88,5A38.64,38.64,0,0,0,76,106Z"/><path class="cls-3" d="M81.45,152.39H74.22l2.23-2.31a18.94,18.94,0,0,0,1.38-1.56,8.46,8.46,0,0,0,.74-1.07,2.79,2.79,0,0,0,.31-.72,2.23,2.23,0,0,0,.06-.46,1.09,1.09,0,0,0-.07-.4,1.14,1.14,0,0,0-.19-.34,1,1,0,0,0-.32-.23,1,1,0,0,0-.43-.09.93.93,0,0,0-.75.31,1.11,1.11,0,0,0-.27.77c0,.09,0,.21,0,.38H74.4a3.87,3.87,0,0,1,.26-1.43,3.23,3.23,0,0,1,.72-1.11,3.16,3.16,0,0,1,1.1-.71,3.71,3.71,0,0,1,1.4-.25,3.94,3.94,0,0,1,1.39.24,3.47,3.47,0,0,1,1.1.66,3.16,3.16,0,0,1,1,2.3,3,3,0,0,1-.32,1.37A5,5,0,0,1,80,149l-1.49,1.39h2.91Z"/><path class="cls-3" d="M82.23,147.89a6.25,6.25,0,0,1,.28-1.95,4.45,4.45,0,0,1,.78-1.5,3.54,3.54,0,0,1,1.2-.95,3.56,3.56,0,0,1,4.29.95,4.84,4.84,0,0,1,.78,1.5,6.9,6.9,0,0,1,0,3.89,4.63,4.63,0,0,1-.78,1.5A3.44,3.44,0,0,1,86,152.64a3.4,3.4,0,0,1-2.75-1.31,4.27,4.27,0,0,1-.78-1.5A6.23,6.23,0,0,1,82.23,147.89Zm2.31,0a5.22,5.22,0,0,0,.1,1.08,3.14,3.14,0,0,0,.31.85,1.6,1.6,0,0,0,.47.55,1,1,0,0,0,.62.2,1.06,1.06,0,0,0,.61-.2,1.6,1.6,0,0,0,.47-.55,3.14,3.14,0,0,0,.3-.85,5.36,5.36,0,0,0,0-2.16,3.14,3.14,0,0,0-.3-.85,1.69,1.69,0,0,0-.47-.55,1,1,0,0,0-.61-.19,1,1,0,0,0-.62.19A1.69,1.69,0,0,0,85,146a3.14,3.14,0,0,0-.31.85A5.22,5.22,0,0,0,84.54,147.89Z"/><path class="cls-3" d="M92.64,145.39H91.32v-2H95v9H92.64Z"/><path class="cls-3" d="M99.27,147.65a2,2,0,0,1-1.41-2,2.33,2.33,0,0,1,.23-1,2.3,2.3,0,0,1,.63-.79,2.75,2.75,0,0,1,1-.51,4.4,4.4,0,0,1,2.49,0,2.75,2.75,0,0,1,1,.51,2.3,2.3,0,0,1,.63.79,2.33,2.33,0,0,1,.23,1,2.49,2.49,0,0,1-.08.64,1.2,1.2,0,0,1-.24.51,2.69,2.69,0,0,1-.45.44,4.87,4.87,0,0,1-.7.39,2.43,2.43,0,0,1,1.83,2.31,2.27,2.27,0,0,1-.25,1.06,2.51,2.51,0,0,1-.72.84,3.25,3.25,0,0,1-1.08.56,4.34,4.34,0,0,1-1.38.21,4.54,4.54,0,0,1-1.35-.2,3.72,3.72,0,0,1-1.09-.55,2.54,2.54,0,0,1-.72-.85,2.18,2.18,0,0,1-.27-1.07A2.38,2.38,0,0,1,99.27,147.65Zm.58,2a1.21,1.21,0,0,0,.31.78,1.16,1.16,0,0,0,.34.24,1,1,0,0,0,.42.09,1,1,0,0,0,.42-.09,1.16,1.16,0,0,0,.34-.24,1,1,0,0,0,.23-.34,1,1,0,0,0,.09-.42,1.07,1.07,0,0,0-1.84-.77A1.06,1.06,0,0,0,99.85,149.67Zm.09-4a1,1,0,0,0,.28.71.93.93,0,0,0,.7.29.87.87,0,0,0,.4-.08,1,1,0,0,0,.31-.22,1.69,1.69,0,0,0,.21-.31,1,1,0,0,0,.07-.37,1,1,0,0,0-.28-.7,1,1,0,0,0-.71-.29,1,1,0,0,0-1,1Z"/></g></g></svg>