<svg xmlns="http://www.w3.org/2000/svg" viewBox="0 0 29.643 26.315"><defs><style>.a{fill:#faa42d;}</style></defs><g transform="translate(-3860.484 -322.445)"><path class="a" d="M37.627,54.456a.688.688,0,0,1,.2.248.725.725,0,0,1,.068.32.467.467,0,1,0,.934,0,1.684,1.684,0,0,0-.159-.725,1.706,1.706,0,0,0-.811-.794,2.563,2.563,0,0,0-.717-.216v-.317a.5.5,0,1,0-1,0v.3a2.341,2.341,0,0,0-.516.128,1.772,1.772,0,0,0-.887.714,1.724,1.724,0,0,0-.263.913,1.548,1.548,0,0,0,.216.821,1.526,1.526,0,0,0,.47.477,3.313,3.313,0,0,0,.979.4v1.923a1.112,1.112,0,0,1-.469-.216.731.731,0,0,1-.263-.582.467.467,0,1,0-.933,0,1.678,1.678,0,0,0,.592,1.3,2.1,2.1,0,0,0,1.072.458v.368a.5.5,0,1,0,1,0v-.383a2.4,2.4,0,0,0,.939-.315,1.559,1.559,0,0,0,.55-.581,1.91,1.91,0,0,0-.007-1.707,1.614,1.614,0,0,0-.46-.521,3.067,3.067,0,0,0-1.007-.449l-.014,0V54.246A1.262,1.262,0,0,1,37.627,54.456Zm-.163,2.665a.835.835,0,0,1,.321.27.786.786,0,0,1,.114.452.825.825,0,0,1-.086.4.723.723,0,0,1-.409.322,1.688,1.688,0,0,1-.258.071V56.989A2.045,2.045,0,0,1,37.464,57.12Zm-1.633-1.5a.81.81,0,0,1-.316-.234.58.58,0,0,1-.1-.364.786.786,0,0,1,.219-.541.9.9,0,0,1,.329-.209,1.331,1.331,0,0,1,.184-.053v1.52A2.323,2.323,0,0,1,35.831,55.622Z" transform="translate(3835.657 283.956)"/><path class="a" d="M34.437,20.793,15.634,10.65a1.316,1.316,0,0,0-.627-.159,1.337,1.337,0,0,0-1.179.7L8.461,21.227a1.223,1.223,0,0,0-.1.258H6.83A1.341,1.341,0,0,0,5.5,22.825v11.3A1.34,1.34,0,0,0,6.83,35.467h17.7a4,4,0,0,0,6.243-5l4.208-7.864A1.347,1.347,0,0,0,34.437,20.793ZM6.83,34.463a.339.339,0,0,1-.333-.335v-11.3a.339.339,0,0,1,.333-.335H19.866a3,3,0,0,0,5.946,0h2.326a.339.339,0,0,1,.334.335v6.067a4.01,4.01,0,0,0-4.6,5.571H6.83ZM20.837,22.1a2,2,0,1,1,2,2.009A2.007,2.007,0,0,1,20.837,22.1ZM27.507,35.8a3.014,3.014,0,1,1,3-3.014A3.011,3.011,0,0,1,27.507,35.8ZM34.1,22.131,30.056,29.69a4,4,0,0,0-.585-.4V22.825a1.341,1.341,0,0,0-1.334-1.339h-2.36a3,3,0,0,0-5.879,0H9.459l5.25-9.814a.337.337,0,0,1,.3-.176.319.319,0,0,1,.154.039l18.8,10.143A.341.341,0,0,1,34.1,22.131Z" transform="translate(3854.989 311.954)"/></g></svg>