<svg xmlns="http://www.w3.org/2000/svg" width="239.714" height="94.214" viewBox="0 0 239.714 94.214"><g transform="translate(6644 -4319)"><g transform="translate(-6665.873 4224.377)"><path d="M204.328,164.591h-26.41a1.5,1.5,0,1,1,0-3h26.266a10.383,10.383,0,0,0,8.249-10.1c.307-8.074-4.322-8.883-5.073-8.961H190.409c-6.8-1.133-8.22-7.245-8.023-10.495-.037-8.448,7.093-12.23,10.877-13.051a1.548,1.548,0,0,1,.318-.034h23.78a1.5,1.5,0,0,1,0,3h-23.6c-1.151.293-8.434,2.453-8.372,10.116,0,.037,0,.074,0,.112-.017.264-.325,6.308,5.39,7.354,0,0,16.743,0,16.731,0,.084.005,8.362.631,7.927,12.072a13.363,13.363,0,0,1-10.85,12.969A1.433,1.433,0,0,1,204.328,164.591Z" fill="#004f9b"/><path d="M254.1,164.749H229.729a1.449,1.449,0,0,1-.161-.009c-3.213-.344-9.327-2.58-9.464-8.583-.144-6.38,4.129-25.762,4.311-26.584a1.49,1.49,0,0,1,.059-.2c.148-.4,3.732-9.816,11.668-9.816h17.531a1.5,1.5,0,0,1,.416.059c.307.089,7.5,2.238,7.5,8.426A109.818,109.818,0,0,1,260,142.413a1.5,1.5,0,0,1-1.465,1.242l-33.919.284a79.289,79.289,0,0,0-1.509,12.15c.106,4.646,5.953,5.56,6.715,5.66H254.1a1.5,1.5,0,0,1,0,3ZM227.32,130.333c-.169.769-1.171,5.374-2.156,10.6l32.082-.268a97.883,97.883,0,0,0,1.341-12.621c0-3.508-4.215-5.16-5.151-5.485H236.142C230.6,122.56,227.663,129.476,227.32,130.333Z" fill="#004f9b"/><path d="M132.184,184.431a1.447,1.447,0,0,1-.269-.024,1.5,1.5,0,0,1-1.209-1.742s2.389-13.21,4.8-26.421c1.2-6.606,2.41-13.213,3.324-18.168.458-2.48.842-4.547,1.116-5.994a23.471,23.471,0,0,1,.545-2.5l-.026-.01c1.694-4.631,6.973-9.594,10.86-10.213a1.6,1.6,0,0,1,.408-.009c.992.034,10.5.013,16.778-.01h.005c1.454-.032,9.227,2.911,8.323,9.065-.008.054-.009.109-.018.163l-4.183,25.54c-.009.056-.022.11-.036.164-.091.32-2.289,7.864-9.6,10.058a1.456,1.456,0,0,1-.388.062l-15.412.441a.917.917,0,0,1-.182-.006,14.134,14.134,0,0,1-9.029-5.48c-1.66,9.119-3.317,18.264-4.328,23.849A1.5,1.5,0,0,1,132.184,184.431Zm6.583-29.374c3.051,5.812,7.761,6.678,8.457,6.776l15.093-.431c5.245-1.686,7.155-7.2,7.371-7.876l4.153-25.349c.434-2.825-3.9-5.846-5.676-5.834-1.1,0-4.611.016-8.125.022-2.121,0-4.244.005-5.833,0-1.089,0-1.875,0-2.45-.038-2.539.434-7.064,4.472-8.463,8.23C143.03,131.741,140.989,142.859,138.767,155.057Z" fill="#004f9b"/><path d="M111.922,113.019a4.185,4.185,0,1,1-4.185-4.185A4.185,4.185,0,0,1,111.922,113.019Z" fill="#ffa600"/><circle cx="4.185" cy="4.185" r="4.185" transform="translate(94.076 94.623)" fill="#ffa600"/><path d="M92.929,113.019a4.185,4.185,0,1,1-4.185-4.185A4.185,4.185,0,0,1,92.929,113.019Z" fill="#ffa600"/><circle cx="4.185" cy="4.185" r="4.185" transform="translate(103.069 165.82)" fill="#ffa600"/><circle cx="4.185" cy="4.185" r="4.185" transform="translate(94.056 152.46)" fill="#ffa600"/><circle cx="3.461" cy="3.461" r="3.461" transform="translate(76.317 153.185)" fill="#ffa600"/><path d="M92.472,170.005a3.46,3.46,0,1,1-3.461-3.461A3.461,3.461,0,0,1,92.472,170.005Z" fill="#ffa600"/><circle cx="3.461" cy="3.461" r="3.461" transform="translate(76.074 181.191)" fill="#ffa600"/><circle cx="2.682" cy="2.682" r="2.682" transform="translate(67.895 167.323)" fill="#ffa600"/><circle cx="2.682" cy="2.682" r="2.682" transform="translate(34.922 139.282)" fill="#ffa600"/><circle cx="2.682" cy="2.682" r="2.682" transform="translate(39.725 124.991)" fill="#ffa600"/><path d="M54.175,113.019a2.681,2.681,0,1,1-2.681-2.682A2.681,2.681,0,0,1,54.175,113.019Z" fill="#ffa600"/><path d="M63.392,99.124a2.681,2.681,0,1,1-2.681-2.681A2.681,2.681,0,0,1,63.392,99.124Z" fill="#ffa600"/><circle cx="2.682" cy="2.682" r="2.682" transform="translate(58.289 181.97)" fill="#ffa600"/><circle cx="2.682" cy="2.682" r="2.682" transform="translate(49.072 167.323)" fill="#ffa600"/><circle cx="2.682" cy="2.682" r="2.682" transform="translate(39.595 153.964)" fill="#ffa600"/><circle cx="1.383" cy="1.383" r="1.383" transform="translate(35.83 168.621)" fill="#ffa600"/><circle cx="1.383" cy="1.383" r="1.383" transform="translate(27.196 155.262)" fill="#ffa600"/><path d="M24.64,141.716a1.384,1.384,0,1,1-1.383-1.383A1.384,1.384,0,0,1,24.64,141.716Z" fill="#ffa600"/><circle cx="1.383" cy="1.383" r="1.383" transform="translate(26.806 126.312)" fill="#ffa600"/><circle cx="1.383" cy="1.383" r="1.383" transform="translate(36.153 111.773)" fill="#ffa600"/><circle cx="3.461" cy="3.461" r="3.461" transform="translate(57.38 153.185)" fill="#ffa600"/><circle cx="3.461" cy="3.461" r="3.461" transform="translate(47.644 138.538)" fill="#ffa600"/><path d="M64.171,127.673a3.46,3.46,0,1,1-3.46-3.461A3.46,3.46,0,0,1,64.171,127.673Z" fill="#ffa600"/><circle cx="3.461" cy="3.461" r="3.461" transform="translate(66.857 109.558)" fill="#ffa600"/><circle cx="3.461" cy="3.461" r="3.461" transform="translate(75.944 95.408)" fill="#ffa600"/><circle cx="4.185" cy="4.185" r="4.185" transform="translate(65.888 137.813)" fill="#ffa600"/><circle cx="4.185" cy="4.185" r="4.185" transform="translate(75.224 123.488)" fill="#ffa600"/><circle cx="4.185" cy="4.185" r="4.185" transform="translate(94.056 180.467)" fill="#ffa600"/><rect width="61.923" height="2.566" transform="translate(72.198 140.52)" fill="#ffa600"/><rect width="19.474" height="2.566" transform="translate(82.504 126.39)" fill="#ffa600"/><path d="M110.34,142.943,99.624,126.39h2.992l10.715,16.553Z" fill="#ffa600"/><rect width="9.934" height="2.566" transform="translate(101.505 155.362)" fill="#ffa600"/><path d="M109.074,157.928l8.888-14.986h2.566l-8.888,14.986Z" fill="#ffa600"/></g></g></svg>