<svg xmlns="http://www.w3.org/2000/svg" viewBox="0 0 22.396 24.1"><g transform="translate(-17.2 0)"><path d="M23.583,15.868H36.862A2.74,2.74,0,0,0,39.6,13.134V7.488a.063.063,0,0,0,0-.03c0-.01,0-.025,0-.035s0-.02,0-.03a.315.315,0,0,1-.01-.035c0-.01,0-.02-.01-.03s0-.02-.01-.03a.241.241,0,0,1-.015-.035.108.108,0,0,0-.015-.025l-.015-.03c0-.01-.01-.015-.015-.025s-.015-.02-.02-.03a.087.087,0,0,0-.02-.025c0-.01-.015-.015-.02-.025s-.015-.015-.02-.025-.015-.015-.02-.02l-.025-.025c-.01,0-.015-.015-.025-.02S39.324,7,39.314,7l-.025-.015a.1.1,0,0,1-.03-.02l-.03-.015-.03-.015-.03-.015c-.01,0-.02,0-.03-.01a.092.092,0,0,0-.035-.01.215.215,0,0,1-.025,0,.109.109,0,0,0-.04,0s-.01,0-.02,0L22.191,4.56V2.213a.3.3,0,0,0,0-.069.037.037,0,0,0,0-.02c0-.015,0-.03,0-.045s0-.025-.01-.04,0-.015,0-.025l-.015-.045s0-.015,0-.02a.148.148,0,0,0-.02-.04s0-.015-.01-.02a.1.1,0,0,0-.02-.03c0-.01-.01-.015-.015-.025s-.01-.015-.015-.025-.015-.02-.02-.03l-.015-.015L22,1.737l-.015-.015a.215.215,0,0,0-.035-.03s-.015-.01-.02-.015-.02-.015-.03-.025a.457.457,0,0,0-.04-.025s-.01,0-.015-.01l-.064-.03L18.13.053a.669.669,0,0,0-.52,1.233l3.239,1.367V17.3a2.737,2.737,0,0,0,2.382,2.709A2.7,2.7,0,1,0,28.244,21.4a2.648,2.648,0,0,0-.371-1.362h6.013a2.662,2.662,0,0,0-.371,1.362,2.7,2.7,0,1,0,2.7-2.7H23.583a1.4,1.4,0,0,1-1.4-1.4V15.492A2.765,2.765,0,0,0,23.583,15.868ZM26.912,21.4a1.362,1.362,0,1,1-1.362-1.362A1.364,1.364,0,0,1,26.912,21.4Zm10.669,0a1.362,1.362,0,1,1-1.362-1.362A1.364,1.364,0,0,1,37.581,21.4Zm-.718-6.865H23.583a1.4,1.4,0,0,1-1.4-1.4V5.908L38.259,8.122v5.008A1.4,1.4,0,0,1,36.862,14.531Z"/></g></svg>