<svg xmlns="http://www.w3.org/2000/svg" width="22.401" height="24.102" viewBox="0 0 22.401 24.102"><g transform="translate(-17.201 0)"><path d="M23.583,15.868H36.862A2.74,2.74,0,0,0,39.6,13.134V7.488a.063.063,0,0,0,0-.03V7.393a.316.316,0,0,1-.01-.035.037.037,0,0,0-.01-.03c-.01-.01,0-.02-.01-.03a.241.241,0,0,1-.015-.035.108.108,0,0,0-.015-.025l-.015-.03c0-.01-.01-.015-.015-.025s-.015-.02-.02-.03a.087.087,0,0,0-.02-.025c0-.01-.015-.015-.02-.025s-.015-.015-.02-.025-.015-.015-.02-.02l-.025-.025c-.01,0-.015-.015-.025-.02A.159.159,0,0,0,39.314,7l-.025-.015a.1.1,0,0,1-.03-.02l-.03-.015-.03-.015-.03-.015a.037.037,0,0,1-.03-.01A.092.092,0,0,0,39.1,6.9h-.025a.109.109,0,0,0-.04,0h-.02L22.191,4.56V2.213a.3.3,0,0,0,0-.069.037.037,0,0,0,0-.02q0-.022,0-.045a.06.06,0,0,0-.01-.04c-.01-.015,0-.015,0-.025l-.015-.045v-.02a.148.148,0,0,0-.02-.04s0-.015-.01-.02a.1.1,0,0,0-.02-.03c0-.01-.01-.015-.015-.025s-.01-.015-.015-.025-.015-.02-.02-.03l-.015-.015L22,1.737l-.015-.015a.215.215,0,0,0-.035-.03.2.2,0,0,1-.02-.015c-.005,0-.02-.015-.03-.025l-.04-.025a.018.018,0,0,1-.015-.01l-.064-.03L18.13.053a.669.669,0,1,0-.52,1.233l3.239,1.367V17.3a2.737,2.737,0,0,0,2.382,2.709A2.7,2.7,0,1,0,28.244,21.4a2.648,2.648,0,0,0-.371-1.362h6.013a2.662,2.662,0,0,0-.371,1.362,2.7,2.7,0,1,0,2.7-2.7H23.583a1.4,1.4,0,0,1-1.4-1.4V15.492a2.765,2.765,0,0,0,1.4.376ZM26.912,21.4a1.362,1.362,0,1,1-1.362-1.362A1.362,1.362,0,0,1,26.912,21.4Zm10.669,0a1.362,1.362,0,1,1-1.362-1.362A1.362,1.362,0,0,1,37.581,21.4Zm-.718-6.865H23.583a1.4,1.4,0,0,1-1.4-1.4V5.908L38.259,8.122V13.13a1.4,1.4,0,0,1-1.4,1.4Z" fill="#fff"/></g></svg>